Monoid-Diacritics-Retina.sfdir
StartChar: A
Encoding: 65 65 19
GlifName: A_
Width: 1024
VWidth: 0
Flags: W
HStem: 0 21G<105 246.5 905.5 1047> 384 120<342 810> 1139 141<552.916 599.249>
AnchorPoint: "top" 576 1280 basechar 0
AnchorPoint: "bottom" 960 0 basechar 0
LayerCount: 5
Back
Fore
SplineSet
581 1139 m 5
 571 1139 l 5
 473 939 400 724 342 504 c 5
 810 504 l 5
 752 724 680 938 581 1139 c 5
312 384 m 5
 282 257 258 129 235 0 c 5
 105 0 l 5
 182 441 295 884 520 1280 c 5
 632 1280 l 5
 857 884 970 441 1047 0 c 5
 917 0 l 5
 894 129 870 257 840 384 c 5
 312 384 l 5
EndSplineSet
Layer: 2
Layer: 3
Layer: 4
Position2: "Single Positioning lookup 21 subtable" dx=128 dy=0 dh=0 dv=0
Position2: "Single Positioning lookup 19 subtable" dx=-128 dy=0 dh=0 dv=0
Position2: "Single Positioning lookup 18 subtable" dx=0 dy=0 dh=0 dv=0
EndChar
StartChar: C
Encoding: 67 67 21
GlifName: C_
Width: 1024
VWidth: 0
Flags: W
HStem: -16 120<449.944 955.632> 1176 120<450.371 925.892>
VStem: 112 128<350.344 929.656>
AnchorPoint: "bottom" 704 0 basechar 0
AnchorPoint: "top" 640 1280 basechar 0
LayerCount: 5
Back
SplineSet
960 141 m 5
 960 21 l 5
 849 1 726 -16 599 -16 c 4
 339 -16 199 143 143 364 c 4
 114 478 112 594 112 704 c 4
 112 814 114 930 143 1044 c 4
 199 1265 332 1424 589 1424 c 4
 708 1424 824 1412 930 1395 c 5
 930 1275 l 5
 820 1292 698 1304 589 1304 c 4
 398 1304 312 1187 268 1016 c 4
 243 919 240 813 240 704 c 4
 240 595 243 489 268 392 c 4
 312 221 402 104 599 104 c 4
 715 104 845 121 960 141 c 5
EndSplineSet
Fore
SplineSet
653 1296 m 4
 750 1296 844 1286 930 1271 c 5
 930 1151 l 5
 841 1166 742 1176 653 1176 c 4
 494 1176 397 1125 330 1028 c 4
 265 934 240 800 240 640 c 4
 240 480 265 346 330 252 c 4
 398 154 494 104 663 104 c 4
 758 104 865 115 960 129 c 5
 960 9 l 5
 869 -5 767 -16 663 -16 c 4
 457 -16 319 49 223 186 c 4
 138 307 112 461 112 640 c 4
 112 819 138 973 223 1094 c 4
 318 1230 457 1296 653 1296 c 4
EndSplineSet
Layer: 2
SplineSet
643 1236 m 0
 684.837145374 1235.97036613 726.614315112 1232.12965722 768 1226 c 0
 838.84667922 1215.50685823 908.562896614 1198.54555938 978 1181 c 0
 1036.08283412 1166.32346879 1094.03637254 1151.14047818 1152 1136 c 1
 976 704 l 1
 1152 144 l 1
 1094.03637254 128.859521819 1036.08283412 113.67653121 978 99 c 0
 908.562896614 81.4544406196 838.84667922 64.4931417678 768 54 c 0
 726.614315112 47.8703427815 684.837145374 44.0296338701 643 44 c 0
 552.373612422 43.9358079865 459.971767897 63.5891031375 384 113 c 0
 301.308728082 166.781161362 243.630686973 253.689312427 213.516290586 347.622176214 c 0
 183.401894199 441.55504 176 541.357920902 176 640 c 0
 176 738.642079098 183.401894199 838.44496 213.516290586 932.377823786 c 0
 243.630686973 1026.31068757 301.308728082 1113.21883864 384 1167 c 0
 459.971767897 1216.41089686 552.373612422 1236.06419201 643 1236 c 0
  Spiro
    643 1236 o
    768 1226 o
    978 1181 o
    1152 1136 v
    976 704 v
    1152 144 v
    978 99 o
    768 54 o
    643 44 o
    384 113 o
    176 640 o
    384 1167 o
    0 0 z
  EndSpiro
EndSplineSet
Layer: 3
Layer: 4
Position2: "Single Positioning lookup 21 subtable" dx=128 dy=0 dh=0 dv=0
Position2: "Single Positioning lookup 19 subtable" dx=-128 dy=0 dh=0 dv=0
Position2: "Single Positioning lookup 18 subtable" dx=0 dy=0 dh=0 dv=0
EndChar
StartChar: D
Encoding: 68 68 22
GlifName: D_
Width: 1024
VWidth: 0
Flags: W
HStem: 0 120<320 699.096> 1160 120<320 699.096>
VStem: 192 128<120 1160> 912 128<340.438 939.562>
AnchorPoint: "top" 576 1280 basechar 0
LayerCount: 5
Back
SplineSet
474 1408 m 6
 717 1408 859 1306 943 1171 c 4
 1025 1040 1040 877 1040 704 c 4
 1040 531 1025 368 943 237 c 4
 859 102 717 0 474 0 c 6
 192 0 l 5
 192 1408 l 5
 474 1408 l 6
912 704 m 4
 912 888 893 1030 825 1126 c 4
 766 1210 670 1288 474 1288 c 6
 320 1288 l 5
 320 120 l 5
 474 120 l 6
 670 120 766 198 825 282 c 4
 893 378 912 520 912 704 c 4
EndSplineSet
Fore
SplineSet
474 1280 m 2
 717 1280 860 1189 943 1067 c 0
 1025 947 1040 798 1040 640 c 0
 1040 482 1025 333 943 213 c 0
 860 91 717 0 474 0 c 2
 192 0 l 5
 192 1280 l 5
 474 1280 l 2
912 640 m 0
 912 807 893 935 825 1022 c 0
 768 1095 670 1160 474 1160 c 2
 320 1160 l 5
 320 120 l 5
 474 120 l 2
 670 120 768 185 825 258 c 0
 893 345 912 473 912 640 c 0
EndSplineSet
Layer: 2
Layer: 3
Layer: 4
Position2: "Single Positioning lookup 21 subtable" dx=128 dy=0 dh=0 dv=0
Position2: "Single Positioning lookup 19 subtable" dx=-128 dy=0 dh=0 dv=0
Position2: "Single Positioning lookup 18 subtable" dx=0 dy=0 dh=0 dv=0
EndChar
StartChar: E
Encoding: 69 69 23
GlifName: E_
Width: 1024
VWidth: 0
Flags: W
HStem: 0 120<320 960> 648 120<320 832> 1160 120<320 960>
VStem: 192 128<120 648 768 1160>
AnchorPoint: "top" 512 1280 basechar 0
LayerCount: 5
Back
SplineSet
192 1408 m 5
 960 1408 l 5
 960 1288 l 5
 320 1288 l 5
 320 768 l 5
 832 768 l 5
 832 648 l 5
 320 648 l 5
 320 120 l 5
 960 120 l 5
 960 0 l 5
 192 0 l 5
 192 1408 l 5
EndSplineSet
Fore
SplineSet
192 1280 m 5
 960 1280 l 5
 960 1160 l 5
 320 1160 l 5
 320 768 l 5
 832 768 l 5
 832 648 l 5
 320 648 l 5
 320 120 l 5
 960 120 l 5
 960 0 l 5
 192 0 l 5
 192 1280 l 5
EndSplineSet
Layer: 2
Layer: 3
Layer: 4
Position2: "Single Positioning lookup 21 subtable" dx=128 dy=0 dh=0 dv=0
Position2: "Single Positioning lookup 19 subtable" dx=-128 dy=0 dh=0 dv=0
Position2: "Single Positioning lookup 18 subtable" dx=0 dy=0 dh=0 dv=0
EndChar
StartChar: G
Encoding: 71 71 24
GlifName: G_
Width: 1024
VWidth: 0
Flags: W
HStem: -16 120<449.967 829.864> 640 120<576 832> 1176 120<450.414 925.881>
VStem: 112 128<347.577 929.656> 832 128<113.045 640>
AnchorPoint: "bottom" 704 0 basechar 0
AnchorPoint: "top" 640 1280 basechar 0
LayerCount: 5
Back
SplineSet
653 1296 m 4
 772 1296 888 1284 994 1267 c 5
 994 1147 l 5
 884 1164 762 1176 653 1176 c 4
 494.075075075 1176 397.186425859 1125.16190817 330 1028 c 4
 265 934 240 800 240 640 c 4
 240 480 265 346 330 252 c 4
 398 154 494 104 663 104 c 4
 779 104 909 117 1024 133 c 5
 1024 13 l 5
 913 -3 790 -16 663 -16 c 4
 457 -16 319 49 223 186 c 4
 138 307 112 461 112 640 c 4
 112 819 138 973 223 1094 c 4
 318.446353582 1229.87069157 456.681818182 1296 653 1296 c 4
EndSplineSet
Fore
SplineSet
653 1296 m 0
 749.66568915 1296 843.89453125 1288 930 1271 c 1
 930 1151 l 1
 840.645507812 1168 741.542521994 1176 653 1176 c 0
 494.075075075 1176 397.186425861 1125.16190817 330 1028 c 0
 265 934 240 800 240 640 c 0
 240 480 264.848382966 345.89497749 330 252 c 0
 398 154 494 104 663 104 c 0
 717.003939985 104 775.19140625 108.125976562 832 120.365234375 c 5
 832 640 l 1
 576 640 l 1
 576 760 l 1
 960 760 l 1
 960 24 l 5
 868.678710938 -0.275390625 767.484764543 -16 663 -16 c 0
 457 -16 319.160543533 49.112638029 223 186 c 0
 138 307 112 461 112 640 c 0
 112 819 138 973 223 1094 c 0
 318.446353582 1229.87069157 456.681818182 1296 653 1296 c 0
EndSplineSet
Layer: 2
Layer: 3
Layer: 4
Position2: "Single Positioning lookup 21 subtable" dx=128 dy=0 dh=0 dv=0
Position2: "Single Positioning lookup 19 subtable" dx=-128 dy=0 dh=0 dv=0
Position2: "Single Positioning lookup 18 subtable" dx=0 dy=0 dh=0 dv=0
EndChar
StartChar: H
Encoding: 72 72 25
GlifName: H_
Width: 1024
VWidth: 0
Flags: W
HStem: 0 21G<192 320 832 960> 640 120<320 832>
VStem: 192 128<0 640 760 1280> 832 128<0 640 760 1280>
AnchorPoint: "top" 576 1280 basechar 0
LayerCount: 5
Back
SplineSet
192 1408 m 5
 320 1408 l 5
 320 760 l 5
 832 760 l 5
 832 1408 l 5
 960 1408 l 5
 960 0 l 5
 832 0 l 5
 832 640 l 5
 320 640 l 5
 320 0 l 5
 192 0 l 5
 192 1408 l 5
EndSplineSet
Fore
SplineSet
192 1280 m 1
 320 1280 l 1
 320 760 l 1
 832 760 l 5
 832 1280 l 5
 960 1280 l 5
 960 0 l 5
 832 0 l 5
 832 640 l 5
 320 640 l 1
 320 0 l 1
 192 0 l 1
 192 1280 l 1
EndSplineSet
Layer: 2
Layer: 3
Layer: 4
Position2: "Single Positioning lookup 21 subtable" dx=128 dy=0 dh=0 dv=0
Position2: "Single Positioning lookup 19 subtable" dx=-128 dy=0 dh=0 dv=0
Position2: "Single Positioning lookup 18 subtable" dx=0 dy=0 dh=0 dv=0
EndChar
StartChar: L
Encoding: 76 76 29
GlifName: L_
Width: 1024
VWidth: 0
Flags: W
HStem: 0 120<384 1024>
VStem: 256 128<120 1280>
AnchorPoint: "bottom" 704 0 basechar 0
AnchorPoint: "top" 320 1280 basechar 0
LayerCount: 5
Back
Fore
SplineSet
256 0 m 1
 256 1280 l 5
 384 1280 l 5
 384 120 l 1
 1024 120 l 1
 1024 0 l 1
 256 0 l 1
EndSplineSet
Layer: 2
Layer: 3
Layer: 4
EndChar
StartChar: N
Encoding: 78 78 30
GlifName: N_
Width: 1024
VWidth: 0
Flags: W
HStem: 0 21G<192 320 822.157 960>
VStem: 192 128<0 1020> 832 128<260 1280>
AnchorPoint: "bottom" 576 0 basechar 0
AnchorPoint: "top" 576 1280 basechar 0
LayerCount: 5
Back
SplineSet
320 0 m 5
 192 0 l 5
 192 1408 l 5
 319 1408 l 5
 822 280 l 5
 832 280 l 5
 832 1408 l 5
 960 1408 l 5
 960 0 l 5
 832 0 l 5
 330 1128 l 5
 320 1128 l 5
 320 0 l 5
EndSplineSet
Fore
SplineSet
320 0 m 1
 192 0 l 1
 192 1280 l 1
 319 1280 l 1
 822 260 l 1
 832 260 l 1
 832 1280 l 1
 960 1280 l 1
 960 0 l 1
 832 0 l 1
 330 1020 l 5
 320 1020 l 5
 320 0 l 1
EndSplineSet
Layer: 2
SplineSet
192 0 m 5
 192 1521 l 5
 960 15 l 5
 960 1536 l 1029
EndSplineSet
Layer: 3
Layer: 4
Position2: "Single Positioning lookup 21 subtable" dx=128 dy=0 dh=0 dv=0
Position2: "Single Positioning lookup 19 subtable" dx=-128 dy=0 dh=0 dv=0
Position2: "Single Positioning lookup 18 subtable" dx=0 dy=0 dh=0 dv=0
EndChar
StartChar: O
Encoding: 79 79 31
GlifName: O_
Width: 1024
VWidth: 0
Flags: W
HStem: -16 120<422.22 729.78> 1176 120<422.22 729.78>
VStem: 128 128<298.47 981.53> 896 128<298.47 981.53>
AnchorPoint: "top" 576 1280 basechar 0
LayerCount: 5
Back
SplineSet
576 1176 m 4
 520.921875 1176 466.188476562 1162.06347656 420.666015625 1134.56347656 c 4
 386.083007812 1113.671875 355.44140625 1083.87597656 332.0546875 1048.68652344 c 4
 308.576171875 1013.35839844 291.581054688 971.830078125 280.334960938 927.702148438 c 4
 257.588867188 838.4453125 256 740.868164062 256 640 c 4
 256 539.131835938 257.588867188 441.5546875 280.334960938 352.297851562 c 4
 291.580078125 308.169921875 308.576171875 266.640625 332.0546875 231.313476562 c 4
 355.443359375 196.120117188 386.081054688 166.328125 420.666015625 145.435546875 c 4
 466.1875 117.936523438 520.921875 104 576 104 c 4
 631.078125 104 685.811523438 117.936523438 731.333984375 145.435546875 c 4
 765.916992188 166.327148438 796.55859375 196.123046875 819.9453125 231.313476562 c 4
 843.423828125 266.641601562 860.418945312 308.169921875 871.665039062 352.297851562 c 4
 894.411132812 441.5546875 896 539.131835938 896 640 c 4
 896 740.868164062 894.411132812 838.4453125 871.665039062 927.702148438 c 4
 860.418945312 971.829101562 843.422851562 1013.359375 819.9453125 1048.68554688 c 4
 796.556640625 1083.87988281 765.919921875 1113.67089844 731.333984375 1134.56445312 c 4
 685.811523438 1162.06347656 631.077148438 1176 576 1176 c 4
  Spiro
    576 1176 o
    521.419 1171.38 o
    468.88 1157.51 o
    420.666 1134.56 o
    387.551 1110.86 o
    357.709 1081.92 o
    332.055 1048.69 o
    310.729 1011.46 o
    293.509 970.788 o
    280.335 927.702 o
    263.927 835.952 o
    257.251 739.487 o
    256 640 o
    257.251 540.513 o
    263.927 444.048 o
    280.335 352.298 o
    293.509 309.212 o
    310.729 268.535 o
    332.055 231.313 o
    357.71 198.081 o
    387.551 169.139 o
    420.666 145.436 o
    468.879 122.49 o
    521.419 108.622 o
    576 104 o
    630.581 108.622 o
    683.12 122.49 o
    731.334 145.436 o
    764.449 169.139 o
    794.291 198.082 o
    819.945 231.313 o
    841.271 268.536 o
    858.491 309.212 o
    871.665 352.298 o
    888.073 444.048 o
    894.749 540.513 o
    896 640 o
    894.749 739.487 o
    888.073 835.952 o
    871.665 927.702 o
    858.49 970.788 o
    841.27 1011.46 o
    819.945 1048.69 o
    794.291 1081.92 o
    764.45 1110.86 o
    731.334 1134.56 o
    683.12 1157.51 o
    630.581 1171.38 o
    0 0 z
  EndSpiro
576 1296 m 4
 653.698242188 1296 732.540039062 1276.58984375 800.666015625 1235.43554688 c 4
 852.68359375 1204.01171875 895.970703125 1161.21679688 928.583984375 1112.14355469 c 4
 961.110351562 1063.203125 982.420898438 1009.50488281 996.161132812 955.586914062 c 4
 1023.38769531 848.752929688 1024 741.491210938 1024 640 c 4
 1024 538.509765625 1023.38769531 431.247070312 996.161132812 324.412109375 c 4
 982.420898438 270.494140625 961.109375 216.796875 928.583984375 167.856445312 c 4
 895.96875 118.779296875 852.686523438 75.9892578125 800.666015625 44.5634765625 c 4
 732.540039062 3.4091796875 653.697265625 -16 576 -16 c 4
 498.302734375 -16 419.4609375 3.4091796875 351.333984375 44.5634765625 c 4
 299.315429688 75.9873046875 256.029296875 118.782226562 223.416015625 167.856445312 c 4
 190.890625 216.797851562 169.580078125 270.494140625 155.838867188 324.412109375 c 4
 128.612304688 431.247070312 128 538.509765625 128 640 c 4
 128 741.491210938 128.612304688 848.752929688 155.838867188 955.586914062 c 4
 169.579101562 1009.50488281 190.890625 1063.20410156 223.416015625 1112.14257812 c 4
 256.03125 1161.21972656 299.313476562 1204.01074219 351.333984375 1235.43652344 c 4
 419.459960938 1276.58984375 498.302734375 1296 576 1296 c 4
  Spiro
    576 1296 o
    653.563 1289.46 o
    729.481 1269.4 o
    800.666 1235.44 o
    849.655 1200.45 o
    892.524 1158.89 o
    928.584 1112.14 o
    957.481 1061.84 o
    979.782 1009.21 o
    996.161 955.587 o
    1015.47 848.946 o
    1022.84 743.081 o
    1024 640 o
    1022.84 536.92 o
    1015.47 431.054 o
    996.161 324.412 o
    979.781 270.789 o
    957.481 218.163 o
    928.584 167.856 o
    892.524 121.107 o
    849.656 79.5509 o
    800.666 44.5635 o
    729.481 10.598 o
    653.563 -9.45695 o
    576 -16 o
    498.438 -9.45695 o
    422.519 10.598 o
    351.334 44.5635 o
    302.344 79.5506 o
    259.476 121.108 o
    223.416 167.856 o
    194.519 218.163 o
    172.219 270.789 o
    155.839 324.412 o
    136.533 431.054 o
    129.164 536.92 o
    128 640 o
    129.164 743.081 o
    136.533 848.946 o
    155.839 955.587 o
    172.219 1009.21 o
    194.519 1061.84 o
    223.416 1112.14 o
    259.476 1158.89 o
    302.344 1200.45 o
    351.334 1235.44 o
    422.519 1269.4 o
    498.437 1289.46 o
    0 0 z
  EndSpiro
EndSplineSet
Fore
SplineSet
256 640 m 4
 256 500 257 347 332 231 c 4
 379 158 465 104 576 104 c 4
 687 104 773 158 820 231 c 4
 895 347 896 500 896 640 c 4
 896 780 895 933 820 1049 c 4
 773 1122 687 1176 576 1176 c 4
 465 1176 379 1122 332 1049 c 4
 257 933 256 780 256 640 c 4
128 640 m 4
 128 782 128 969 223 1112 c 4
 291 1214 411 1296 576 1296 c 4
 741 1296 861 1214 929 1112 c 4
 1024 969 1024 782 1024 640 c 4
 1024 498 1024 311 929 168 c 4
 861 66 741 -16 576 -16 c 4
 411 -16 291 66 223 168 c 4
 128 311 128 498 128 640 c 4
EndSplineSet
Layer: 2
SplineSet
576 1236 m 0
 642.387490427 1236 709.175905564 1219.32668316 766 1185 c 0
 809.302101904 1158.84177351 846.263910862 1122.54856957 874.265131356 1080.4147768 c 0
 902.266351849 1038.28098403 921.419683358 990.667630044 933.912896761 941.644732729 c 0
 958.899323566 843.598938099 960 741.179540269 960 640 c 0
 960 538.820459731 958.899323566 436.401061901 933.912896761 338.355267271 c 0
 921.419683358 289.332369956 902.266351849 241.719015972 874.265131356 199.585223202 c 0
 846.263910862 157.451430433 809.302101904 121.158226488 766 95 c 0
 709.175905564 60.6733168396 642.387490427 44 576 44 c 0
 509.612509573 44 442.824094436 60.6733168396 386 95 c 0
 342.697898096 121.158226488 305.736089138 157.451430433 277.734868644 199.585223202 c 0
 249.733648151 241.719015972 230.580316642 289.332369956 218.087103239 338.355267271 c 0
 193.100676434 436.401061901 192 538.820459731 192 640 c 0
 192 741.179540269 193.100676434 843.598938099 218.087103239 941.644732729 c 0
 230.580316642 990.667630044 249.733648151 1038.28098403 277.734868644 1080.4147768 c 0
 305.736089138 1122.54856957 342.697898096 1158.84177351 386 1185 c 0
 442.824094436 1219.32668316 509.612509573 1236 576 1236 c 0
  Spiro
    576 1236 o
    766 1185 o
    960 640 o
    766 95 o
    576 44 o
    386 95 o
    192 640 o
    386 1185 o
    0 0 z
  EndSpiro
EndSplineSet
Layer: 3
SplineSet
576 1364 m 0
 643.232974455 1364 710.624752961 1346.04787984 768 1311 c 0
 815.850534785 1281.77032553 856.230827797 1240.84198324 886.44733169 1193.60840999 c 0
 916.663835583 1146.37483675 936.888479806 1093.21313869 949.871199277 1038.6650265 c 0
 975.836638219 929.568802112 976 816.143614152 976 704 c 0
 976 591.856385848 975.836638219 478.431197888 949.871199277 369.3349735 c 0
 936.888479806 314.786861307 916.663835583 261.625163249 886.44733169 214.391590007 c 0
 856.230827797 167.158016764 815.850534786 126.229674468 768 97 c 0
 710.624752961 61.9521201594 643.232974455 44 576 44 c 0
 508.767025545 44 441.375247039 61.9521201594 384 97 c 0
 336.149465215 126.229674468 295.769172203 167.158016764 265.55266831 214.391590006 c 0
 235.336164417 261.625163249 215.111520194 314.786861307 202.128800723 369.3349735 c 0
 176.163361781 478.431197888 176 591.856385848 176 704 c 0
 176 816.143614152 176.163361781 929.568802112 202.128800723 1038.6650265 c 0
 215.111520194 1093.21313869 235.336164417 1146.37483675 265.55266831 1193.60840999 c 0
 295.769172203 1240.84198324 336.149465214 1281.77032553 384 1311 c 0
 441.375247039 1346.04787984 508.767025545 1364 576 1364 c 0
  Spiro
    576 1364 o
    768 1311 o
    976 704 o
    768 97 o
    576 44 o
    384 97 o
    176 704 o
    384 1311 o
    0 0 z
  EndSpiro
EndSplineSet
Layer: 4
Position2: "Single Positioning lookup 21 subtable" dx=128 dy=0 dh=0 dv=0
Position2: "Single Positioning lookup 19 subtable" dx=-128 dy=0 dh=0 dv=0
Position2: "Single Positioning lookup 18 subtable" dx=0 dy=0 dh=0 dv=0
EndChar
StartChar: R
Encoding: 82 82 34
GlifName: R_
Width: 1024
VWidth: 0
Flags: W
HStem: 0 21G<256 384 920.073 1065> 512 120<384 697.189> 1160 120<384 800.83>
VStem: 256 128<0 512 632 1160> 912 128<745.363 1047.29>
AnchorPoint: "bottom" 704 0 basechar 0
AnchorPoint: "top" 576 1280 basechar 0
LayerCount: 5
Back
SplineSet
605 1160 m 6
 384 1160 l 5
 384 632 l 5
 605 632 l 4
 651.034179688 632 692.57011668 633.285966724 728.419921875 641.947265625 c 4
 764.341796875 650.625976562 798.14564521 667.19026939 825.3515625 690.509765625 c 4
 852.744140625 713.989257812 875.174989216 745.565758084 889.834960938 780.921875 c 4
 904.584960938 816.495117188 912 856.1171875 912 896 c 4
 912 935.883789062 904.584857177 975.504839791 889.834960938 1011.07910156 c 4
 875.17578125 1046.43457031 852.744140625 1078.01074219 825.352539062 1101.48925781 c 4
 798.145507812 1124.80957031 764.341662244 1141.37346619 728.418945312 1150.05273438 c 4
 692.571289062 1158.71386719 651.033203125 1160 605 1160 c 6
605 1280 m 6
 652.470703125 1280 705.321308494 1279.55476793 760.364257812 1266.25585938 c 4
 815.330078125 1252.97558594 867.934086606 1227.58537317 911.721679688 1190.05371094 c 4
 955.32421875 1152.68066406 987.987125298 1105.57259615 1009.13964844 1054.5546875 c 4
 1030.20214844 1003.75390625 1040 949.62109375 1040 896 c 4
 1040 842.377929688 1030.20259818 788.246883842 1009.13964844 737.446289062 c 4
 987.986328125 686.427734375 955.323599525 639.320058368 911.72265625 601.947265625 c 4
 867.934570312 564.4140625 815.329713165 539.024948081 760.36328125 525.744140625 c 4
 705.322265625 512.4453125 652.469726562 512 605 512 c 4
 256 512 l 5
 256 1280 l 5
 605 1280 l 6
EndSplineSet
Fore
SplineSet
605 1280 m 2
 698 1280 813 1275 912 1190 c 0
 986.805641505 1125.77293406 1040 1024 1040 896 c 0
 1040 729.048877642 947.853592438 600.595234751 823.968231888 547.103854603 c 1
 1065 0 l 1
 929 0 l 1
 698.717903856 515.948493892 l 1
 666.086213614 512.531622022 634.45274475 512 605 512 c 2
 384 512 l 1
 384 0 l 1
 256 0 l 1
 256 1280 l 1
 605 1280 l 2
912 896 m 0
 912 985 876 1058 825 1101 c 0
 757.163989875 1158.19506736 684 1160 605 1160 c 2
 384 1160 l 1
 384 632 l 1
 605 632 l 2
 684 632 757 634 825 691 c 0
 876.123289734 733.853345806 912 807 912 896 c 0
EndSplineSet
Layer: 2
Layer: 3
Layer: 4
Position2: "Single Positioning lookup 21 subtable" dx=128 dy=0 dh=0 dv=0
Position2: "Single Positioning lookup 19 subtable" dx=-128 dy=0 dh=0 dv=0
Position2: "Single Positioning lookup 18 subtable" dx=0 dy=0 dh=0 dv=0
EndChar
StartChar: S
Encoding: 83 83 35
GlifName: S_
Width: 1024
VWidth: 0
Flags: W
HStem: -16 120<255.397 806.374> 1176 120<458.72 984.716>
VStem: 226 128<823.438 1078.11> 926 128<214.217 474.212>
AnchorPoint: "bottom" 704 0 basechar 0
AnchorPoint: "top" 576 1280 basechar 0
LayerCount: 5
Back
Fore
SplineSet
620 -16 m 0
 486 -16 366 -2 250 16 c 1
 250 139 l 1
 364 121 492 104 620 104 c 0
 809 104 926 197 926 345 c 0
 926 433 878 508 800 549 c 0
 703 600 584 590 465 630 c 0
 324 678 226 791 226 957 c 0
 226 1150 385 1296 620 1296 c 0
 756 1296 877 1283 990 1271 c 1
 990 1150 l 1
 878 1162 745 1176 620 1176 c 0
 455 1176 354 1080 354 957 c 0
 354 860 406 790 482 755 c 0
 583 709 727 721 850 661 c 0
 972 602 1054 485 1054 345 c 0
 1054 131 879 -16 620 -16 c 0
EndSplineSet
Layer: 2
SplineSet
576 1364 m 0
 770.390625 1364 906 1234.61328125 906 1034 c 4
 906 842.827148438 770.390625 704 576 704 c 0
 381.609375 704 246 842.827148438 246 1034 c 0
 246 1234.61328125 381.609375 1364 576 1364 c 0
  Spiro
    576 1364 o
    747.805 1323.1 o
    863.724 1208.57 o
    906 1034 o
    863.724 863.625 o
    747.805 746.99 o
    576 704 o
    404.195 746.99 o
    288.276 863.625 o
    246 1034 o
    288.276 1208.57 o
    404.195 1323.1 o
    0 0 z
  EndSpiro
576 704 m 0
 793.953125 704 946 562.8125 946 374 c 4
 946 175.747070312 793.953125 44 576 44 c 0
 358.046875 44 206 175.747070312 206 374 c 0
 206 562.8125 358.046875 704 576 704 c 0
  Spiro
    576 704 o
    768.63 660.486 o
    898.6 543.326 o
    946 374 o
    898.6 200.479 o
    768.63 85.4188 o
    576 44 o
    383.37 85.4188 o
    253.4 200.479 o
    206 374 o
    253.4 543.326 o
    383.37 660.486 o
    0 0 z
  EndSpiro
EndSplineSet
Layer: 3
SplineSet
119 128 m 4
 184.904269994 111.18024036 251.270678437 96.1709817957 318 83 c 4
 367.467542194 73.2361348436 417.112368286 64.3208602971 467 57 c 4
 516.369842506 49.7551237159 566.10145967 44.0724868737 616 44 c 4
 616.302285852 43.9995608738 616.604585094 43.9993408882 616.906896992 43.9993408882 c 4
 669.49887712 43.9993408882 722.473885493 50.6570190234 771.970171345 68.4211210116 c 4
 821.750974267 86.2873355155 867.595597611 115.708038332 903 155 c 4
 957.807926253 215.826077891 986.019112705 297.56119565 986.019112705 380.748041824 c 4
 986.019112705 444.39059731 969.486530117 508.404176843 935.672596142 562.302648486 c 4
 901.194781272 617.25932784 848.191915135 659.794841952 788 684 c 4
 732.310120284 706.394740841 671.937043957 713.651826484 612.48984382 721.953483908 c 4
 553.042643683 730.255141332 492.847644309 741.539261936 440 770 c 4
 391.608876844 796.06070902 350.889057216 836.211771491 324.568386313 884.461990539 c 4
 298.460800854 932.321588108 285.997509904 987.142675762 285.997509904 1041.66505784 c 4
 285.997509904 1129.46733644 318.945729442 1217.6052298 382 1278 c 4
 412.772778095 1307.47484516 450.147291975 1329.86784745 490.358882056 1343.96601727 c 4
 530.570472137 1358.06418709 573.388657033 1363.93819735 616 1364 c 4
 616.714448305 1364.00051781 l 4
 659.416881673 1364.00051781 701.951866126 1358.45752993 744 1351 c 4
 784.946897419 1343.73778204 825.561861064 1334.70284171 866 1325 c 4
 947.315630362 1305.48889709 1027.92865062 1283.11418434 1108 1259 c 1028
  Spiro
    119 128 {
    318 83 o
    467 57 o
    616 44 o
    903 155 o
    986 377 o
    788 684 o
    440 770 o
    286 1043 o
    382 1278 o
    616 1364 o
    744 1351 o
    866 1325 o
    1108 1259 o
    0 0 z
  EndSpiro
EndSplineSet
Layer: 4
Position2: "Single Positioning lookup 21 subtable" dx=128 dy=0 dh=0 dv=0
Position2: "Single Positioning lookup 19 subtable" dx=-128 dy=0 dh=0 dv=0
Position2: "Single Positioning lookup 18 subtable" dx=0 dy=0 dh=0 dv=0
EndChar
StartChar: U
Encoding: 85 85 37
GlifName: U_
Width: 1024
VWidth: 0
Flags: W
HStem: -16 120<429.853 722.069>
VStem: 192 128<220.016 1280> 832 128<220.016 1280>
AnchorPoint: "top" 576 1280 basechar 0
LayerCount: 5
Back
Fore
SplineSet
192 1280 m 1
 320 1280 l 1
 320 482 l 2
 320 427 320 358 332 300 c 0
 356 183 439 104 576 104 c 0
 713 104 796 183 820 300 c 0
 832 358 832 427 832 482 c 2
 832 1280 l 1
 960 1280 l 1
 960 482 l 2
 960 416 960 351 944 273 c 0
 909 105 774 -16 576 -16 c 0
 378 -16 242 105 208 273 c 0
 192 351 192 416 192 482 c 2
 192 1280 l 1
EndSplineSet
Layer: 2
SplineSet
576 812 m 4
 802.2 812 960 654.575 960 428 c 4
 960 201.425 802.2 44 576 44 c 4
 349.8 44 192 201.425 192 428 c 4
 192 654.575 349.8 812 576 812 c 4
EndSplineSet
Layer: 3
SplineSet
192 1536 m 1
 192 482 l 2
 192 426.701625656 193.035856564 370.874340729 206.098947229 317.14105619 c 0
 219.162037895 263.40777165 244.109140936 212.36082041 280.224013825 170.484500593 c 0
 316.338886714 128.608180778 362.980658982 96.1855593791 414.116334248 75.1367370804 c 0
 465.252009514 54.0879147817 520.701625656 43.9999999981 576 44 c 0
 631.298374344 44 686.747990487 54.0879147857 737.883665753 75.1367370865 c 0
 789.019341019 96.1855593872 835.661113286 128.608180789 871.775986175 170.484500605 c 0
 907.890859062 212.36082042 932.837962104 263.407771658 945.901052769 317.141056196 c 0
 958.964143435 370.874340733 959.999999999 426.701625658 960 482 c 2
 960 1535 l 1025
  Spiro
    192 1536 {
    192 482 ]
    576 44 o
    960 482 [
    960 1535 v
    0 0 z
  EndSpiro
EndSplineSet
Layer: 4
Position2: "Single Positioning lookup 21 subtable" dx=128 dy=0 dh=0 dv=0
Position2: "Single Positioning lookup 19 subtable" dx=-128 dy=0 dh=0 dv=0
Position2: "Single Positioning lookup 18 subtable" dx=0 dy=0 dh=0 dv=0
EndChar
StartChar: V
Encoding: 86 86 38
GlifName: V_
Width: 1024
VWidth: 0
InSpiro: 1
Flags: W
HStem: 0 21G<407.5 744.5>
VStem: 105 130<1073.32 1280> 917 130<1073.32 1280>
AnchorPoint: "top" 576 1280 basechar 0
LayerCount: 5
Back
SplineSet
113 1738 m 1
 163 1448 l 2
 247.236184118 959.430132117 360.279088989 471.386311474 576 25 c 1
 791.720911011 471.386311474 904.763815882 959.430132117 989 1448 c 2
 1039 1738 l 1025
  Spiro
    113 1738 {
    163 1448 ]
    576 25 v
    989 1448 [
    1039 1738 o
    0 0 z
  EndSpiro
EndSplineSet
Fore
SplineSet
581 141 m 1
 754 493 849 884 917 1280 c 1
 1047 1280 l 1
 970 839 857 396 632 0 c 1
 520 0 l 1
 295 396 182 839 105 1280 c 1
 235 1280 l 1
 303 884 399 492 571 141 c 1
 581 141 l 1
  Spiro
    581 141 v
    729.762 504.367 o
    838.203 887.315 o
    917 1280 v
    1047 1280 v
    955.295 840.585 o
    822.323 409.43 o
    632 0 v
    520 0 v
    329.677 409.43 o
    196.705 840.585 o
    105 1280 v
    235 1280 v
    314.019 887.093 o
    422.682 503.922 o
    571 141 v
    0 0 z
  EndSpiro
EndSplineSet
Layer: 2
SplineSet
49.8203125 1728.42578125 m 1
 176.1796875 1747.57324219 l 1
 226.1796875 1457.57421875 l 0
 301.982421875 1017.91796875 401.680664062 579.475585938 576 177.118164062 c 1
 751.01953125 581.08984375 849.983398438 1017.72167969 925.8203125 1457.57421875 c 0
 975.8203125 1747.57324219 l 1
 1102.1796875 1728.42578125 l 1
 1052.1796875 1438.42578125 l 0
 967.588867188 947.799804688 853.788085938 454.430664062 634.295898438 0.2392578125 c 1
 517.704101562 0.2392578125 l 1
 298.211914062 454.430664062 184.411132812 947.799804688 99.8203125 1438.42578125 c 0
 49.8203125 1728.42578125 l 1
  Spiro
    49.8203 1728.43 v
    176.18 1747.57 v
    226.18 1457.57 [
    311.729 1020.05 o
    424.806 589.79 o
    576 177.118 v
    727.498 590.464 o
    840.411 1020.32 o
    925.82 1457.57 ]
    975.82 1747.57 v
    1102.18 1728.43 v
    1052.18 1438.43 [
    955.132 948.926 o
    821.233 465.462 o
    634.296 0.239258 v
    517.704 0.239258 v
    330.767 465.462 o
    196.868 948.926 o
    99.8203 1438.43 ]
    0 0 z
  EndSpiro
EndSplineSet
Layer: 3
Layer: 4
Position2: "Single Positioning lookup 21 subtable" dx=128 dy=0 dh=0 dv=0
Position2: "Single Positioning lookup 19 subtable" dx=-128 dy=0 dh=0 dv=0
Position2: "Single Positioning lookup 18 subtable" dx=0 dy=0 dh=0 dv=0
EndChar
StartChar: W
Encoding: 87 87 39
GlifName: W_
Width: 1024
VWidth: 0
Flags: W
HStem: 0 21G<212 387.136 764.864 940>
VStem: 119 128<847.607 1280> 905 128<847.607 1280>
AnchorPoint: "top" 576 1280 basechar 0
LayerCount: 5
Back
Fore
SplineSet
514 896 m 1
 638 896 l 1
 812 210 l 1
 822 210 l 1
 887 539.574290484 905 907.554257095 905 1280 c 5
 1033 1280 l 5
 1033 850 986 423.636363636 894 0 c 1
 770 0 l 1
 581 736 l 1
 571 736 l 1
 382 0 l 1
 258 0 l 1
 166 423.636363636 119 850 119 1280 c 5
 247 1280 l 5
 247 907.554257095 266 539.574290484 330 210 c 1
 340 210 l 1
 514 896 l 1
EndSplineSet
Layer: 2
Layer: 3
Layer: 4
Substitution2: "'ss10' Style Set 10 lookup 9 subtable" W.straight
Position2: "Single Positioning lookup 21 subtable" dx=128 dy=0 dh=0 dv=0
Position2: "Single Positioning lookup 19 subtable" dx=-128 dy=0 dh=0 dv=0
Position2: "Single Positioning lookup 18 subtable" dx=0 dy=0 dh=0 dv=0
EndChar
StartChar: Y
Encoding: 89 89 40
GlifName: Y_
Width: 1024
VWidth: 0
Flags: W
HStem: 0 21G<512 640>
VStem: 512 128<0 582.348>
AnchorPoint: "top" 576 1280 basechar 0
LayerCount: 5
Back
SplineSet
43 1610 m 1
 153 1320 l 2
 255.401028692 1050.03365163 380.955938319 783.898130411 576 571 c 1
 771.044061681 783.898130411 896.598971308 1050.03365163 999 1320 c 2
 1109 1610 l 1025
  Spiro
    43 1610 {
    153 1320 ]
    576 571 v
    999 1320 [
    1109 1610 o
    0 0 z
  EndSpiro
EndSplineSet
Fore
SplineSet
586 658 m 1
 730 847.304347826 830 1059.92203898 916 1280 c 1
 1052 1280 l 1
 954 1021.42424242 832 773.785353535 640 538 c 1
 640 0 l 1
 512 0 l 1
 512 538 l 1
 320 773.785353535 198 1021.42424242 100 1280 c 1
 236 1280 l 1
 322 1058.89732728 423 846.371814093 566 658 c 1
 586 658 l 1
EndSplineSet
Layer: 2
SplineSet
-17.30078125 1589.89648438 m 1
 103.30078125 1630.10253906 l 1
 213.30078125 1340.10351562 l 0
 305.5859375 1096.80761719 416.874023438 859.079101562 576 665.984375 c 1
 736.182617188 860.362304688 846.376953125 1096.70996094 938.69921875 1340.10253906 c 0
 1048.69921875 1630.10253906 l 1
 1169.30078125 1589.89648438 l 1
 1059.30078125 1299.89746094 l 0
 955.892578125 1027.27539062 827.939453125 753.9140625 624.55078125 531.907226562 c 0
 585.6328125 489.42578125 543.6328125 514.2421875 527.44921875 531.907226562 c 0
 324.060546875 753.9140625 196.107421875 1027.27539062 92.69921875 1299.89648438 c 0
 -17.30078125 1589.89648438 l 1
  Spiro
    -17.3008 1589.9 v
    103.301 1630.1 v
    213.301 1340.1 [
    312.88 1100.35 o
    431.882 872.292 o
    576 665.984 v
    720.579 872.84 o
    839.338 1100.59 o
    938.699 1340.1 ]
    1048.7 1630.1 v
    1169.3 1589.9 v
    1059.3 1299.9 [
    945.952 1029.23 o
    804.52 768.852 o
    624.551 531.907 o
    585.714 509.107 o
    551.138 514.63 o
    527.449 531.907 o
    347.48 768.852 o
    206.048 1029.23 o
    92.6992 1299.9 ]
    0 0 z
  EndSpiro
EndSplineSet
Layer: 3
Layer: 4
EndChar
StartChar: Z
Encoding: 90 90 41
GlifName: Z_
Width: 1024
VWidth: 0
Flags: W
HStem: 0 120<303 1024> 1160 120<148 829>
LayerCount: 5
Back
Fore
SplineSet
148 1160 m 1
 148 1280 l 1
 1004 1280 l 1
 1004 1190 l 1
 303 130 l 5
 303 120 l 5
 1024 120 l 1
 1024 0 l 1
 128 0 l 1
 128 92 l 1
 829 1150 l 1
 829 1160 l 1
 148 1160 l 1
EndSplineSet
Layer: 2
Layer: 3
Layer: 4
Position2: "Single Positioning lookup 21 subtable" dx=128 dy=0 dh=0 dv=0
Position2: "Single Positioning lookup 19 subtable" dx=-128 dy=0 dh=0 dv=0
Position2: "Single Positioning lookup 18 subtable" dx=0 dy=0 dh=0 dv=0
EndChar
StartChar: g
Encoding: 103 103 5
GlifName: g
Width: 1920
VWidth: 0
Flags: H
LayerCount: 5
Back
Fore
Layer: 2
Layer: 3
SplineSet
560 256 m 0
 540.531058528 255.947221234 521.068001614 253.93112987 502 250 c 0
 429.609085841 235.075620889 363.438945309 190.787450634 323.3553728 128.686816502 c 0
 295.049798907 84.8335874058 280.159157176 32.615220877 280.159157176 -19.5380184051 c 0
 280.159157176 -41.2390721402 282.737332713 -62.9288497008 288 -84 c 1
 209 -374 l 1
 242.96542309 -380.84150246 276.961124633 -387.533850806 311 -394 c 0
 348.904671387 -401.200509937 386.85129422 -408.230450311 425 -414 c 0
 461.90225773 -419.581038865 499.006770216 -423.98450874 536.377578814 -424.000158115 c 0
 559.041833588 -424.000158115 581.745827027 -422.289510396 604 -418 c 0
 640.10095022 -411.041511745 674.92790157 -396.960217035 705.038701814 -375.864272538 c 0
 735.149502059 -354.768328042 760.351981447 -326.936162582 779.427369943 -295.506419991 c 0
 817.886880116 -232.13824769 832.002686517 -156.82331051 832.002686517 -82.2233925653 c 0
 832.002686517 -11.0094668425 819.032413309 61.5201974215 784.179541127 123.59687694 c 0
 766.608167036 154.893366725 743.26464813 183.100056667 714.856993763 205.036980648 c 0
 686.449339397 226.973904628 653.075441808 242.38837453 618 250 c 0
 598.968519222 254.12996947 579.474370882 256.052793484 560 256 c 0
  Spiro
    560 256 o
    502 250 o
    288 -84 v
    209 -374 v
    311 -394 o
    425 -414 o
    536 -424 o
    604 -418 o
    832 -84 o
    618 250 o
    0 0 z
  EndSpiro
EndSplineSet
Layer: 4
Substitution2: "Single Substitution lookup 72 subtable" larsenwork
Substitution2: "'ss11' Style Set 11 lookup 10 subtable" g.long
Position2: "Single Positioning lookup 17 subtable" dx=-128 dy=0 dh=0 dv=0
Position2: "Single Positioning lookup 16 subtable" dx=-128 dy=0 dh=0 dv=0
Position2: "Single Positioning lookup 15 subtable" dx=0 dy=0 dh=0 dv=0
Position2: "Single Positioning lookup 13 subtable" dx=-128 dy=0 dh=0 dv=0
Position2: "Single Positioning lookup 9 subtable" dx=128 dy=0 dh=0 dv=0
Position2: "Single Positioning lookup 8 subtable" dx=128 dy=0 dh=0 dv=0
Position2: "Single Positioning lookup 7 subtable" dx=0 dy=0 dh=0 dv=0
Position2: "Single Positioning lookup 3 subtable" dx=128 dy=0 dh=0 dv=0
EndChar
StartChar: x
Encoding: 120 120 15
GlifName: x
Width: 1920
VWidth: 0
Flags: H
LayerCount: 5
Back
Fore
Layer: 2
SplineSet
1152 -144 m 5
 128 1196 l 1029
128 -144 m 5
 1152 1196 l 1029
EndSplineSet
Layer: 3
Layer: 4
Position2: "Single Positioning lookup 17 subtable" dx=-128 dy=0 dh=0 dv=0
Position2: "Single Positioning lookup 16 subtable" dx=-128 dy=0 dh=0 dv=0
Position2: "Single Positioning lookup 15 subtable" dx=0 dy=0 dh=0 dv=0
Position2: "Single Positioning lookup 13 subtable" dx=-128 dy=0 dh=0 dv=0
Position2: "Single Positioning lookup 9 subtable" dx=128 dy=0 dh=0 dv=0
Position2: "Single Positioning lookup 8 subtable" dx=128 dy=0 dh=0 dv=0
Position2: "Single Positioning lookup 7 subtable" dx=0 dy=0 dh=0 dv=0
Position2: "Single Positioning lookup 3 subtable" dx=128 dy=0 dh=0 dv=0
EndChar
StartChar: cent
Encoding: 162 162 304
GlifName: cent
Width: 1920
VWidth: 0
Flags: H
LayerCount: 5
Back
SplineSet
224 512 m 4
 224 633 226 738 267 831 c 4
 317 946 418 1040 606 1040 c 4
 709 1040 786 1032 876 1018 c 5
 876 898 l 5
 785 912 702 920 606 920 c 4
 486 920 427 872 387 789 c 4
 352 716 352 614 352 512 c 4
 352 410 352 308 387 235 c 4
 427 152 486 104 606 104 c 4
 706 104 796 114 896 130 c 5
 896 10 l 5
 797 -6 713 -16 606 -16 c 4
 418 -16 317 78 267 193 c 4
 226 286 224 391 224 512 c 4
EndSplineSet
Fore
Layer: 2
Layer: 3
Layer: 4
EndChar
StartChar: Eacute
Encoding: 201 201 51
GlifName: E_acute
Width: 1024
VWidth: 0
Flags: W
HStem: 0 120<320 960> 648 120<320 832> 1160 120<320 960> 1408 21G<424 574.969>
VStem: 192 128<120 648 768 1160>
LayerCount: 5
Back
Fore
SplineSet
192 1280 m 5
 960 1280 l 5
 960 1160 l 5
 320 1160 l 5
 320 768 l 5
 832 768 l 5
 832 648 l 5
 320 648 l 5
 320 120 l 5
 960 120 l 5
 960 0 l 5
 192 0 l 5
 192 1280 l 5
424 1408 m 1
 590 1664 l 1
 728 1664 l 1
 562 1408 l 1
 424 1408 l 1
EndSplineSet
Layer: 2
Layer: 3
Layer: 4
EndChar
StartChar: Ecircumflex
Encoding: 202 202 52
GlifName: E_circumflex
Width: 1024
VWidth: 0
Flags: W
HStem: 0 120<320 960> 648 120<320 832> 1160 120<320 960> 1408 21G<136 320.585 703.415 888>
VStem: 192 128<120 648 768 1160>
LayerCount: 5
Back
Fore
SplineSet
192 1280 m 5
 960 1280 l 5
 960 1160 l 5
 320 1160 l 5
 320 768 l 5
 832 768 l 5
 832 648 l 5
 320 648 l 5
 320 120 l 5
 960 120 l 5
 960 0 l 5
 192 0 l 5
 192 1280 l 5
433 1664 m 1
 591 1664 l 1
 888 1408 l 1
 730 1408 l 1
 512 1572 l 1
 294 1408 l 1
 136 1408 l 1
 433 1664 l 1
EndSplineSet
Layer: 2
Layer: 3
Layer: 4
EndChar
StartChar: Edieresis
Encoding: 203 203 53
GlifName: E_dieresis
Width: 1024
VWidth: 0
Flags: W
HStem: 0 120<320 960> 648 120<320 832> 1160 120<320 960> 1424 224<198.609 377.391 646.609 825.391>
VStem: 176 224<1446.61 1625.39> 192 128<120 648 768 1160> 624 224<1446.61 1625.39>
LayerCount: 5
Back
Fore
SplineSet
192 1280 m 5xf6
 960 1280 l 5
 960 1160 l 5
 320 1160 l 5
 320 768 l 5
 832 768 l 5
 832 648 l 5
 320 648 l 5
 320 120 l 5
 960 120 l 5
 960 0 l 5
 192 0 l 5
 192 1280 l 5xf6
736 1648 m 4
 802 1648 848 1602 848 1536 c 4
 848 1470 802 1424 736 1424 c 4
 670 1424 624 1470 624 1536 c 4
 624 1602 670 1648 736 1648 c 4
288 1648 m 4
 354 1648 400 1602 400 1536 c 4
 400 1470 354 1424 288 1424 c 4
 222 1424 176 1470 176 1536 c 4xfa
 176 1602 222 1648 288 1648 c 4
EndSplineSet
Layer: 2
Layer: 3
Layer: 4
EndChar
StartChar: Igrave
Encoding: 204 204 54
GlifName: I_grave
Width: 1024
VWidth: 0
Flags: W
HStem: 0 120<256 512 640 896> 1160 120<256 512 640 896> 1408 21G<513.031 664>
VStem: 512 128<120 1160>
LayerCount: 5
Back
Fore
SplineSet
896 1280 m 5
 896 1160 l 5
 640 1160 l 5
 640 120 l 1
 896 120 l 1
 896 0 l 1
 256 0 l 1
 256 120 l 1
 512 120 l 1
 512 1160 l 5
 256 1160 l 5
 256 1280 l 5
 896 1280 l 5
664 1408 m 1
 526 1408 l 1
 360 1664 l 1
 498 1664 l 1
 664 1408 l 1
EndSplineSet
Layer: 2
Layer: 3
Layer: 4
EndChar
StartChar: Icircumflex
Encoding: 206 206 56
GlifName: I_circumflex
Width: 1024
VWidth: 0
Flags: W
HStem: 0 120<256 512 640 896> 1160 120<256 512 640 896> 1408 21G<200 384.585 767.415 952>
VStem: 512 128<120 1160>
LayerCount: 5
Back
Fore
SplineSet
896 1280 m 5
 896 1160 l 5
 640 1160 l 5
 640 120 l 1
 896 120 l 1
 896 0 l 1
 256 0 l 1
 256 120 l 1
 512 120 l 1
 512 1160 l 5
 256 1160 l 5
 256 1280 l 5
 896 1280 l 5
497 1664 m 1
 655 1664 l 1
 952 1408 l 1
 794 1408 l 1
 576 1572 l 1
 358 1408 l 1
 200 1408 l 1
 497 1664 l 1
EndSplineSet
Layer: 2
Layer: 3
Layer: 4
EndChar
StartChar: Ntilde
Encoding: 209 209 58
GlifName: N_tilde
Width: 1024
VWidth: 0
Flags: W
HStem: 0 21G<192 320 822.157 960> 1412 120<627.68 755.914> 1540 120<396.111 524.32>
VStem: 192 128<0 1020> 253 128<1433 1533.1> 771 128<1539.78 1639> 832 128<260 1280>
LayerCount: 5
Back
Fore
SplineSet
320 0 m 1xf2
 192 0 l 1
 192 1280 l 1
 319 1280 l 1
 822 260 l 1
 832 260 l 1
 832 1280 l 1
 960 1280 l 1
 960 0 l 1
 832 0 l 1
 330 1020 l 5
 320 1020 l 5
 320 0 l 1xf2
448 1540 m 0
 397 1540 384 1481 381 1427 c 1
 253 1433 l 1
 257 1551 319 1660 448 1660 c 0
 594 1660 627 1532 704 1532 c 0
 755 1532 768 1591 771 1645 c 1
 899 1639 l 1xec
 896 1523 833 1412 704 1412 c 0
 558 1412 525 1540 448 1540 c 0
EndSplineSet
Layer: 2
Layer: 3
Layer: 4
EndChar
StartChar: Otilde
Encoding: 213 213 62
GlifName: O_tilde
Width: 1024
VWidth: 0
Flags: W
HStem: -16 120<422.22 729.78> 1176 120<422.22 729.78> 1412 120<627.68 755.914> 1540 120<396.111 524.32>
VStem: 128 128<298.47 981.53> 253 128<1433 1533.1> 771 128<1539.78 1639> 896 128<298.47 981.53>
LayerCount: 5
Back
Fore
SplineSet
256 640 m 4xf9
 256 500 257 347 332 231 c 4
 379 158 465 104 576 104 c 4
 687 104 773 158 820 231 c 4
 895 347 896 500 896 640 c 4
 896 780 895 933 820 1049 c 4
 773 1122 687 1176 576 1176 c 4
 465 1176 379 1122 332 1049 c 4
 257 933 256 780 256 640 c 4xf9
128 640 m 4
 128 782 128 969 223 1112 c 4
 291 1214 411 1296 576 1296 c 4
 741 1296 861 1214 929 1112 c 4
 1024 969 1024 782 1024 640 c 4
 1024 498 1024 311 929 168 c 4
 861 66 741 -16 576 -16 c 4
 411 -16 291 66 223 168 c 4
 128 311 128 498 128 640 c 4
448 1540 m 0
 397 1540 384 1481 381 1427 c 1
 253 1433 l 1
 257 1551 319 1660 448 1660 c 0
 594 1660 627 1532 704 1532 c 0
 755 1532 768 1591 771 1645 c 1
 899 1639 l 1xf6
 896 1523 833 1412 704 1412 c 0
 558 1412 525 1540 448 1540 c 0
EndSplineSet
Layer: 2
Layer: 3
Layer: 4
EndChar
StartChar: Ucircumflex
Encoding: 219 219 66
GlifName: U_circumflex
Width: 1024
VWidth: 0
Flags: W
HStem: -16 120<429.853 722.069> 1408 21G<200 384.585 767.415 952>
VStem: 192 128<220.016 1280> 832 128<220.016 1280>
LayerCount: 5
Back
Fore
SplineSet
192 1280 m 1
 320 1280 l 1
 320 482 l 2
 320 427 320 358 332 300 c 0
 356 183 439 104 576 104 c 0
 713 104 796 183 820 300 c 0
 832 358 832 427 832 482 c 2
 832 1280 l 1
 960 1280 l 1
 960 482 l 2
 960 416 960 351 944 273 c 0
 909 105 774 -16 576 -16 c 0
 378 -16 242 105 208 273 c 0
 192 351 192 416 192 482 c 2
 192 1280 l 1
497 1664 m 1
 655 1664 l 1
 952 1408 l 1
 794 1408 l 1
 576 1572 l 1
 358 1408 l 1
 200 1408 l 1
 497 1664 l 1
EndSplineSet
Layer: 2
Layer: 3
Layer: 4
EndChar
StartChar: Udieresis
Encoding: 220 220 67
GlifName: U_dieresis
Width: 1024
VWidth: 0
Flags: W
HStem: -16 120<429.853 722.069> 1424 224<262.609 441.391 710.609 889.391>
VStem: 192 128<220.016 1280> 240 224<1446.61 1625.39> 688 224<1446.61 1625.39> 832 128<220.016 1280>
LayerCount: 5
Back
Fore
SplineSet
192 1280 m 1xe4
 320 1280 l 1
 320 482 l 2
 320 427 320 358 332 300 c 0
 356 183 439 104 576 104 c 0
 713 104 796 183 820 300 c 0
 832 358 832 427 832 482 c 2
 832 1280 l 1
 960 1280 l 1
 960 482 l 2
 960 416 960 351 944 273 c 0
 909 105 774 -16 576 -16 c 0
 378 -16 242 105 208 273 c 0
 192 351 192 416 192 482 c 2
 192 1280 l 1xe4
800 1648 m 4
 866 1648 912 1602 912 1536 c 4
 912 1470 866 1424 800 1424 c 4
 734 1424 688 1470 688 1536 c 4xc8
 688 1602 734 1648 800 1648 c 4
352 1648 m 4
 418 1648 464 1602 464 1536 c 4
 464 1470 418 1424 352 1424 c 4
 286 1424 240 1470 240 1536 c 4xd0
 240 1602 286 1648 352 1648 c 4
EndSplineSet
Layer: 2
Layer: 3
Layer: 4
Substitution2: "'ss14' Style Set 14 lookup 13 subtable" Udieresis.sqeeze
EndChar
StartChar: Yacute
Encoding: 221 221 68
GlifName: Y_acute
Width: 1024
VWidth: 0
Flags: W
HStem: 0 21G<512 640> 1408 21G<488 638.969>
VStem: 512 128<0 582.348>
LayerCount: 5
Back
Fore
SplineSet
586 658 m 1
 730 847.3046875 830 1059.921875 916 1280 c 1
 1052 1280 l 1
 954 1021.42382812 832 773.78515625 640 538 c 1
 640 0 l 1
 512 0 l 1
 512 538 l 1
 320 773.78515625 198 1021.42382812 100 1280 c 1
 236 1280 l 1
 322 1058.89746094 423 846.372070312 566 658 c 1
 586 658 l 1
488 1408 m 1
 654 1664 l 1
 792 1664 l 1
 626 1408 l 1
 488 1408 l 1
EndSplineSet
Layer: 2
Layer: 3
Layer: 4
EndChar
StartChar: germandbls
Encoding: 223 223 69
GlifName: germandbls
Width: 1920
VWidth: 0
Flags: H
LayerCount: 5
Back
Fore
Layer: 2
SplineSet
320 0 m 5
 320 1196 l 5
 320 1288.5482934 332 1356 389 1414 c 4
 436 1462 504.720168777 1492 592 1492 c 4
 742.79971591 1492 848 1387.04971591 848 1236 c 4
 848 1084.95028409 742.79971591 980 592 980 c 1028
EndSplineSet
Layer: 3
Layer: 4
EndChar
StartChar: Cacute
Encoding: 262 262 74
GlifName: C_acute
Width: 1024
VWidth: 0
Flags: W
HStem: -16 120<449.944 955.632> 1176 120<450.371 925.892> 1408 21G<552 702.969>
VStem: 112 128<350.344 929.656>
LayerCount: 5
Back
Fore
SplineSet
653 1296 m 4
 750 1296 844 1286 930 1271 c 5
 930 1151 l 5
 841 1166 742 1176 653 1176 c 4
 494 1176 397 1125 330 1028 c 4
 265 934 240 800 240 640 c 4
 240 480 265 346 330 252 c 4
 398 154 494 104 663 104 c 4
 758 104 865 115 960 129 c 5
 960 9 l 5
 869 -5 767 -16 663 -16 c 4
 457 -16 319 49 223 186 c 4
 138 307 112 461 112 640 c 4
 112 819 138 973 223 1094 c 4
 318 1230 457 1296 653 1296 c 4
552 1408 m 1
 718 1664 l 1
 856 1664 l 1
 690 1408 l 1
 552 1408 l 1
EndSplineSet
Layer: 2
Layer: 3
Layer: 4
EndChar
StartChar: Dcaron
Encoding: 270 270 78
GlifName: D_caron
Width: 1024
VWidth: 0
Flags: W
HStem: 0 120<320 699.096> 1160 120<320 699.096> 1408 21G<473.797 678.203>
VStem: 192 128<120 1160> 912 128<340.438 939.562>
LayerCount: 5
Back
Fore
SplineSet
474 1280 m 2
 717 1280 860 1189 943 1067 c 0
 1025 947 1040 798 1040 640 c 0
 1040 482 1025 333 943 213 c 0
 860 91 717 0 474 0 c 2
 192 0 l 5
 192 1280 l 5
 474 1280 l 2
912 640 m 0
 912 807 893 935 825 1022 c 0
 768 1095 670 1160 474 1160 c 2
 320 1160 l 5
 320 120 l 5
 474 120 l 2
 670 120 768 185 825 258 c 0
 893 345 912 473 912 640 c 0
497 1408 m 1
 200 1664 l 1
 358 1664 l 1
 576 1500 l 1
 794 1664 l 1
 952 1664 l 1
 655 1408 l 1
 497 1408 l 1
EndSplineSet
Layer: 2
Layer: 3
Layer: 4
EndChar
StartChar: Ecaron
Encoding: 282 282 82
GlifName: E_caron
Width: 1024
VWidth: 0
Flags: W
HStem: 0 120<320 960> 648 120<320 832> 1160 120<320 960> 1408 21G<409.797 614.203>
VStem: 192 128<120 648 768 1160>
LayerCount: 5
Back
Fore
SplineSet
192 1280 m 5
 960 1280 l 5
 960 1160 l 5
 320 1160 l 5
 320 768 l 5
 832 768 l 5
 832 648 l 5
 320 648 l 5
 320 120 l 5
 960 120 l 5
 960 0 l 5
 192 0 l 5
 192 1280 l 5
433 1408 m 1
 136 1664 l 1
 294 1664 l 1
 512 1500 l 1
 730 1664 l 1
 888 1664 l 1
 591 1408 l 1
 433 1408 l 1
EndSplineSet
Layer: 2
Layer: 3
Layer: 4
EndChar
StartChar: Gcircumflex
Encoding: 284 284 83
GlifName: G_circumflex
Width: 1024
VWidth: 0
Flags: W
HStem: -16 120<449.967 829.864> 640 120<576 832> 1176 120<450.414 925.881> 1408 21G<264 448.585 831.415 1016>
VStem: 112 128<347.577 929.656> 832 128<113.045 640>
LayerCount: 5
Back
Fore
SplineSet
653 1296 m 0
 749.666015625 1296 843.89453125 1288 930 1271 c 1
 930 1151 l 1
 840.645507812 1168 741.54296875 1176 653 1176 c 0
 494.075195312 1176 397.186523438 1125.16210938 330 1028 c 0
 265 934 240 800 240 640 c 0
 240 480 264.848632812 345.89453125 330 252 c 0
 398 154 494 104 663 104 c 0
 717.00390625 104 775.19140625 108.125976562 832 120.365234375 c 5
 832 640 l 1
 576 640 l 1
 576 760 l 1
 960 760 l 1
 960 24 l 5
 868.678710938 -0.275390625 767.484375 -16 663 -16 c 0
 457 -16 319.16015625 49.1123046875 223 186 c 0
 138 307 112 461 112 640 c 0
 112 819 138 973 223 1094 c 0
 318.446289062 1229.87109375 456.681640625 1296 653 1296 c 0
561 1664 m 1
 719 1664 l 1
 1016 1408 l 1
 858 1408 l 1
 640 1572 l 1
 422 1408 l 1
 264 1408 l 1
 561 1664 l 1
EndSplineSet
Layer: 2
Layer: 3
Layer: 4
EndChar
StartChar: Gbreve
Encoding: 286 286 84
GlifName: G_breve
Width: 1024
VWidth: 0
Flags: W
HStem: -16 120<449.967 829.864> 640 120<576 832> 1176 120<450.414 925.881> 1392 120<484.418 795.582>
VStem: 112 128<347.577 929.656> 300 128<1569.88 1664> 832 128<113.045 640> 852 128<1569.88 1664>
LayerCount: 5
Back
Fore
SplineSet
653 1296 m 0xfe
 749.666015625 1296 843.89453125 1288 930 1271 c 1
 930 1151 l 1
 840.645507812 1168 741.54296875 1176 653 1176 c 0
 494.075195312 1176 397.186523438 1125.16210938 330 1028 c 0
 265 934 240 800 240 640 c 0
 240 480 264.848632812 345.89453125 330 252 c 0
 398 154 494 104 663 104 c 0
 717.00390625 104 775.19140625 108.125976562 832 120.365234375 c 5
 832 640 l 1
 576 640 l 1
 576 760 l 1
 960 760 l 1
 960 24 l 5
 868.678710938 -0.275390625 767.484375 -16 663 -16 c 0
 457 -16 319.16015625 49.1123046875 223 186 c 0
 138 307 112 461 112 640 c 0
 112 819 138 973 223 1094 c 0
 318.446289062 1229.87109375 456.681640625 1296 653 1296 c 0xfe
852 1664 m 1xfd
 980 1664 l 1
 980 1496 828 1392 640 1392 c 0
 452 1392 300 1496 300 1664 c 1
 428 1664 l 1
 428 1578 497 1512 640 1512 c 0
 783 1512 852 1578 852 1664 c 1xfd
EndSplineSet
Layer: 2
Layer: 3
Layer: 4
EndChar
StartChar: Gdotaccent
Encoding: 288 288 85
GlifName: G_dotaccent
Width: 1024
VWidth: 0
Flags: W
HStem: -16 120<449.967 829.864> 640 120<576 832> 1176 120<450.414 925.881> 1456 224<550.609 729.391>
VStem: 112 128<347.577 929.656> 528 224<1478.61 1657.39> 832 128<113.045 640>
LayerCount: 5
Back
Fore
SplineSet
653 1296 m 0
 749.666015625 1296 843.89453125 1288 930 1271 c 1
 930 1151 l 1
 840.645507812 1168 741.54296875 1176 653 1176 c 0
 494.075195312 1176 397.186523438 1125.16210938 330 1028 c 0
 265 934 240 800 240 640 c 0
 240 480 264.848632812 345.89453125 330 252 c 0
 398 154 494 104 663 104 c 0
 717.00390625 104 775.19140625 108.125976562 832 120.365234375 c 5
 832 640 l 1
 576 640 l 1
 576 760 l 1
 960 760 l 1
 960 24 l 5
 868.678710938 -0.275390625 767.484375 -16 663 -16 c 0
 457 -16 319.16015625 49.1123046875 223 186 c 0
 138 307 112 461 112 640 c 0
 112 819 138 973 223 1094 c 0
 318.446289062 1229.87109375 456.681640625 1296 653 1296 c 0
640 1680 m 0
 706 1680 752 1634 752 1568 c 0
 752 1502 706 1456 640 1456 c 0
 574 1456 528 1502 528 1568 c 0
 528 1634 574 1680 640 1680 c 0
EndSplineSet
Layer: 2
Layer: 3
Layer: 4
EndChar
StartChar: Ibreve
Encoding: 300 300 100
GlifName: I_breve
Width: 1024
VWidth: 0
Flags: W
HStem: 0 120<256 512 640 896> 1160 120<256 512 640 896> 1392 120<420.418 731.582>
VStem: 236 128<1569.88 1664> 512 128<120 1160> 788 128<1569.88 1664>
CounterMasks: 1 1c
LayerCount: 5
Back
Fore
SplineSet
896 1280 m 5
 896 1160 l 5
 640 1160 l 5
 640 120 l 1
 896 120 l 1
 896 0 l 1
 256 0 l 1
 256 120 l 1
 512 120 l 1
 512 1160 l 5
 256 1160 l 5
 256 1280 l 5
 896 1280 l 5
788 1664 m 1
 916 1664 l 1
 916 1496 764 1392 576 1392 c 0
 388 1392 236 1496 236 1664 c 1
 364 1664 l 1
 364 1578 433 1512 576 1512 c 0
 719 1512 788 1578 788 1664 c 1
EndSplineSet
Layer: 2
Layer: 3
Layer: 4
EndChar
StartChar: Idotaccent
Encoding: 304 304 101
GlifName: I_dotaccent
Width: 1024
VWidth: 0
Flags: W
HStem: 0 120<256 512 640 896> 1160 120<256 512 640 896> 1456 224<486.609 665.391>
VStem: 464 224<1478.61 1657.39> 512 128<120 1160>
LayerCount: 5
Back
Fore
SplineSet
896 1280 m 5xe8
 896 1160 l 5
 640 1160 l 5
 640 120 l 1
 896 120 l 1
 896 0 l 1
 256 0 l 1
 256 120 l 1
 512 120 l 1
 512 1160 l 5
 256 1160 l 5
 256 1280 l 5
 896 1280 l 5xe8
576 1680 m 0
 642 1680 688 1634 688 1568 c 0
 688 1502 642 1456 576 1456 c 0
 510 1456 464 1502 464 1568 c 0xf0
 464 1634 510 1680 576 1680 c 0
EndSplineSet
Layer: 2
Layer: 3
Layer: 4
EndChar
StartChar: Jcircumflex
Encoding: 308 308 102
GlifName: J_circumflex
Width: 1024
VWidth: 0
Flags: W
HStem: -12 120<365.244 698.635> 1160 120<320 832> 1408 21G<200 384.585 767.415 952>
VStem: 832 128<245.097 1160>
LayerCount: 5
Back
Fore
SplineSet
832 1160 m 5
 320 1160 l 5
 320 1280 l 5
 960 1280 l 5
 960 474 l 2
 960 381 960 253 871 139 c 0
 803.048828125 51.9619140625 687.580078125 -12 542.697265625 -12 c 0
 383.908203125 -12 243.404296875 63.421875 149 143.391601562 c 1
 223 238.77734375 l 1
 298.891601562 173.0859375 416.127929688 108 542.697265625 108 c 0
 643.53125 108 720.846679688 150.321289062 768 210 c 0
 832 291 832 389 832 474 c 2
 832 1160 l 5
497 1664 m 1
 655 1664 l 1
 952 1408 l 1
 794 1408 l 1
 576 1572 l 1
 358 1408 l 1
 200 1408 l 1
 497 1664 l 1
EndSplineSet
Layer: 2
Layer: 3
Layer: 4
EndChar
StartChar: lslash
Encoding: 322 322 118
GlifName: lslash
Width: 1920
VWidth: 0
Flags: H
LayerCount: 5
Back
SplineSet
896 -11 m 5
 858 -13 813 -16 758 -16 c 4
 686 -16 627 9 585 52 c 4
 512 128 512 218 512 279 c 6
 512 522.8 l 5
 256 340 l 5
 256 491 l 5
 512 673.8 l 5
 512 1408 l 5
 640 1408 l 5
 640 765.2 l 5
 896 948 l 5
 896 797 l 5
 640 614.2 l 5
 640 279 l 6
 640 232 640 186 668 148 c 4
 688 121 719 104 768 104 c 4
 810 104 860 106 896 109 c 5
 896 -11 l 5
EndSplineSet
Fore
Layer: 2
Layer: 3
Layer: 4
EndChar
StartChar: Nacute
Encoding: 323 323 103
GlifName: N_acute
Width: 1024
VWidth: 0
Flags: W
HStem: 0 21G<192 320 822.157 960> 1408 21G<488 638.969>
VStem: 192 128<0 1020> 832 128<260 1280>
LayerCount: 5
Back
Fore
SplineSet
320 0 m 1
 192 0 l 1
 192 1280 l 1
 319 1280 l 1
 822 260 l 1
 832 260 l 1
 832 1280 l 1
 960 1280 l 1
 960 0 l 1
 832 0 l 1
 330 1020 l 5
 320 1020 l 5
 320 0 l 1
488 1408 m 1
 654 1664 l 1
 792 1664 l 1
 626 1408 l 1
 488 1408 l 1
EndSplineSet
Layer: 2
Layer: 3
Layer: 4
EndChar
StartChar: Ncaron
Encoding: 327 327 104
GlifName: N_caron
Width: 1024
VWidth: 0
Flags: W
HStem: 0 21G<192 320 822.157 960> 1408 21G<473.797 678.203>
VStem: 192 128<0 1020> 832 128<260 1280>
LayerCount: 5
Back
Fore
SplineSet
320 0 m 1
 192 0 l 1
 192 1280 l 1
 319 1280 l 1
 822 260 l 1
 832 260 l 1
 832 1280 l 1
 960 1280 l 1
 960 0 l 1
 832 0 l 1
 330 1020 l 5
 320 1020 l 5
 320 0 l 1
497 1408 m 1
 200 1664 l 1
 358 1664 l 1
 576 1500 l 1
 794 1664 l 1
 952 1664 l 1
 655 1408 l 1
 497 1408 l 1
EndSplineSet
Layer: 2
Layer: 3
Layer: 4
EndChar
StartChar: Obreve
Encoding: 334 334 106
GlifName: O_breve
Width: 1024
VWidth: 0
Flags: W
HStem: -16 120<422.22 729.78> 1176 120<422.22 729.78> 1392 120<420.418 731.582>
VStem: 128 128<298.47 981.53> 236 128<1569.88 1664> 788 128<1569.88 1664> 896 128<298.47 981.53>
LayerCount: 5
Back
Fore
SplineSet
256 640 m 4xf2
 256 500 257 347 332 231 c 4
 379 158 465 104 576 104 c 4
 687 104 773 158 820 231 c 4
 895 347 896 500 896 640 c 4
 896 780 895 933 820 1049 c 4
 773 1122 687 1176 576 1176 c 4
 465 1176 379 1122 332 1049 c 4
 257 933 256 780 256 640 c 4xf2
128 640 m 4
 128 782 128 969 223 1112 c 4
 291 1214 411 1296 576 1296 c 4
 741 1296 861 1214 929 1112 c 4
 1024 969 1024 782 1024 640 c 4
 1024 498 1024 311 929 168 c 4
 861 66 741 -16 576 -16 c 4
 411 -16 291 66 223 168 c 4
 128 311 128 498 128 640 c 4
788 1664 m 1xec
 916 1664 l 1
 916 1496 764 1392 576 1392 c 0
 388 1392 236 1496 236 1664 c 1
 364 1664 l 1
 364 1578 433 1512 576 1512 c 0
 719 1512 788 1578 788 1664 c 1xec
EndSplineSet
Layer: 2
Layer: 3
Layer: 4
EndChar
StartChar: OE
Encoding: 338 338 108
GlifName: O_E_
Width: 1920
VWidth: 0
Flags: H
CounterMasks: 1 e0
LayerCount: 5
Back
Fore
Layer: 2
SplineSet
512.010705125 1348.00000016 m 0
 543.531652693 1348.00000016 575.67812362 1343.83591424 604 1330 c 0
 632.161619013 1316.24237532 655.112952139 1293.01760042 671 1266 c 0
 695.024212648 1225.14429267 704.756588774 1177.44596079 709.911589846 1130.3314452 c 0
 715.066590918 1083.21692962 715.821543871 1035.74090527 716.581497947 988.351306365 c 0
 718.10140609 893.572108542 720 798.791383894 720 704 c 1
 720 609.208616114 718.101406073 514.427891474 716.581497922 419.64869366 c 0
 715.821543851 372.259094749 715.066590903 324.783070399 709.911589835 277.668554811 c 0
 704.756588767 230.554039223 695.024212645 182.855707335 671 142 c 0
 655.112952139 114.982399579 632.161619013 91.7576246792 604 78 c 0
 575.67812362 64.164085763 543.531652693 59.9999998399 512.010705125 59.9999998399 c 0
 512 60 l 0
 472.045460126 60.0011949733 431.844851994 65.188581831 394 78 c 0
 348.05841334 93.5523630569 306.865648661 122.723485992 277.08840791 161.009531946 c 0
 247.311167159 199.295577899 228.589459636 245.159730065 216 292 c 0
 180.105080557 425.550427467 176 565.709863264 176 704 c 1
 176 842.290136736 180.105080557 982.449572533 216 1116 c 0
 228.589459636 1162.84026993 247.311167159 1208.7044221 277.08840791 1246.99046805 c 0
 306.865648661 1285.27651401 348.05841334 1314.44763694 394 1330 c 0
 431.848590382 1342.81268371 472.050170125 1347.99940257 512.010705125 1348.00000016 c 0
  Spiro
    512 1348 o
    604 1330 o
    671 1266 o
    720 704 o
    671 142 o
    604 78 o
    512 60 o
    394 78 o
    216 292 o
    176 704 o
    216 1116 o
    394 1330 o
    0 0 z
  EndSpiro
EndSplineSet
Layer: 3
SplineSet
512.010742188 1288 m 4
 477.90234375 1288 445.127929688 1283.51660156 415.736328125 1273.56640625 c 4
 382.296875 1262.24609375 351.186523438 1240.42285156 328.802734375 1211.64160156 c 4
 305.8515625 1182.1328125 289.432617188 1143.65234375 278.059570312 1101.33984375 c 4
 244.474609375 976.37890625 240 841.263671875 240 704 c 4
 240 566.735351562 244.473632812 431.622070312 278.060546875 306.66015625 c 4
 289.434570312 264.34375 305.850585938 225.869140625 328.801757812 196.358398438 c 4
 351.1875 167.576171875 382.296875 145.75390625 415.736328125 134.43359375 c 4
 445.125976562 124.484375 477.900390625 120.000976562 512.001953125 120 c 4
 537.848632812 120 559.173828125 123.758789062 574.423828125 131.208984375 c 4
 589.006835938 138.333007812 604.025390625 152.3828125 614.952148438 170.965820312 c 4
 632.326171875 200.51171875 641.44921875 239.950195312 646.245117188 283.790039062 c 4
 651.020507812 327.4296875 651.828125 373.149414062 652.587890625 420.549804688 c 4
 654.111328125 515.48046875 656 609.958984375 656 704 c 4
 656 798.040039062 654.111328125 892.520507812 652.587890625 987.44921875 c 4
 651.828125 1034.85058594 651.01953125 1080.57226562 646.245117188 1124.20800781 c 4
 641.448242188 1168.05664062 632.328125 1207.484375 614.952148438 1237.03417969 c 4
 604.0234375 1255.61914062 589.0078125 1269.66699219 574.423828125 1276.79101562 c 4
 559.180664062 1284.23828125 537.836914062 1288 512.010742188 1288 c 4
512.010742188 1408 m 4
 549.225585938 1408 592.174804688 1403.43359375 633.576171875 1383.20898438 c 4
 675.314453125 1362.81835938 706.203125 1330.41601562 727.047851562 1294.96679688 c 4
 757.720703125 1242.80371094 768.065429688 1186.83496094 773.577148438 1136.45410156 c 4
 779.11328125 1085.86230469 779.814453125 1036.63085938 780.57421875 989.25390625 c 4
 782.091796875 894.624023438 784 799.541992188 784 704 c 4
 784 608.458007812 782.091796875 513.375 780.57421875 418.747070312 c 4
 779.814453125 371.368164062 779.112304688 322.13671875 773.577148438 271.546875 c 4
 768.064453125 221.157226562 757.72265625 165.19921875 727.047851562 113.034179688 c 4
 706.201171875 77.5810546875 675.315429688 45.1826171875 633.576171875 24.791015625 c 4
 592.173828125 4.564453125 549.23828125 0 511.998046875 0 c 4
 466.19140625 0.0009765625 418.563476562 5.892578125 372.263671875 21.56640625 c 4
 313.8203125 41.3505859375 262.54296875 77.87109375 225.375976562 125.659179688 c 4
 188.772460938 172.72265625 167.745117188 225.9765625 153.939453125 277.33984375 c 4
 115.737304688 419.479492188 112 564.68359375 112 704 c 4
 112 843.31640625 115.736328125 988.520507812 153.940429688 1130.66113281 c 4
 167.747070312 1182.02832031 188.771484375 1235.27734375 225.375 1282.33886719 c 4
 262.543945312 1330.13085938 313.8203125 1366.6484375 372.263671875 1386.43359375 c 4
 418.569335938 1402.109375 466.197265625 1408 512.010742188 1408 c 4
EndSplineSet
Layer: 4
EndChar
StartChar: Utilde
Encoding: 360 360 86
GlifName: U_tilde
Width: 1024
VWidth: 0
Flags: W
HStem: -16 120<429.853 722.069> 1412 120<627.68 755.914> 1540 120<396.111 524.32>
VStem: 192 128<220.016 1280> 253 128<1433 1533.1> 771 128<1539.78 1639> 832 128<220.016 1280>
LayerCount: 5
Back
Fore
SplineSet
192 1280 m 1xf2
 320 1280 l 1
 320 482 l 2
 320 427 320 358 332 300 c 0
 356 183 439 104 576 104 c 0
 713 104 796 183 820 300 c 0
 832 358 832 427 832 482 c 2
 832 1280 l 1
 960 1280 l 1
 960 482 l 2
 960 416 960 351 944 273 c 0
 909 105 774 -16 576 -16 c 0
 378 -16 242 105 208 273 c 0
 192 351 192 416 192 482 c 2
 192 1280 l 1xf2
448 1540 m 0
 397 1540 384 1481 381 1427 c 1
 253 1433 l 1
 257 1551 319 1660 448 1660 c 0
 594 1660 627 1532 704 1532 c 0
 755 1532 768 1591 771 1645 c 1
 899 1639 l 1xec
 896 1523 833 1412 704 1412 c 0
 558 1412 525 1540 448 1540 c 0
EndSplineSet
Layer: 2
Layer: 3
Layer: 4
EndChar
StartChar: Umacron
Encoding: 362 362 87
GlifName: U_macron
Width: 1024
VWidth: 0
Flags: W
HStem: -16 120<429.853 722.069> 1412 120<256 896>
VStem: 192 128<220.016 1280> 832 128<220.016 1280>
LayerCount: 5
Back
Fore
SplineSet
192 1280 m 1
 320 1280 l 1
 320 482 l 2
 320 427 320 358 332 300 c 0
 356 183 439 104 576 104 c 0
 713 104 796 183 820 300 c 0
 832 358 832 427 832 482 c 2
 832 1280 l 1
 960 1280 l 1
 960 482 l 2
 960 416 960 351 944 273 c 0
 909 105 774 -16 576 -16 c 0
 378 -16 242 105 208 273 c 0
 192 351 192 416 192 482 c 2
 192 1280 l 1
256 1532 m 1
 896 1532 l 1
 896 1412 l 1
 256 1412 l 1
 256 1532 l 1
EndSplineSet
Layer: 2
Layer: 3
Layer: 4
EndChar
StartChar: Uhungarumlaut
Encoding: 368 368 90
GlifName: U_hungarumlaut
Width: 1024
VWidth: 0
Flags: W
HStem: -16 120<429.853 722.069> 1408 21G<296 446.969 680 830.969>
VStem: 192 128<220.016 1280> 832 128<220.016 1280>
LayerCount: 5
Back
Fore
SplineSet
192 1280 m 1
 320 1280 l 1
 320 482 l 2
 320 427 320 358 332 300 c 0
 356 183 439 104 576 104 c 0
 713 104 796 183 820 300 c 0
 832 358 832 427 832 482 c 2
 832 1280 l 1
 960 1280 l 1
 960 482 l 2
 960 416 960 351 944 273 c 0
 909 105 774 -16 576 -16 c 0
 378 -16 242 105 208 273 c 0
 192 351 192 416 192 482 c 2
 192 1280 l 1
680 1408 m 1
 846 1664 l 1
 984 1664 l 1
 818 1408 l 1
 680 1408 l 1
296 1408 m 1
 462 1664 l 1
 600 1664 l 1
 434 1408 l 1
 296 1408 l 1
EndSplineSet
Layer: 2
Layer: 3
Layer: 4
EndChar
StartChar: Ydieresis
Encoding: 376 376 93
GlifName: Y_dieresis
Width: 1024
VWidth: 0
Flags: W
HStem: 0 21G<512 640> 1424 224<262.609 441.391 710.609 889.391>
VStem: 240 224<1446.61 1625.39> 512 128<0 582.348> 688 224<1446.61 1625.39>
CounterMasks: 1 38
LayerCount: 5
Back
Fore
SplineSet
586 658 m 1
 730 847.3046875 830 1059.921875 916 1280 c 1
 1052 1280 l 1
 954 1021.42382812 832 773.78515625 640 538 c 1
 640 0 l 1
 512 0 l 1
 512 538 l 1
 320 773.78515625 198 1021.42382812 100 1280 c 1
 236 1280 l 1
 322 1058.89746094 423 846.372070312 566 658 c 1
 586 658 l 1
800 1648 m 4
 866 1648 912 1602 912 1536 c 4
 912 1470 866 1424 800 1424 c 4
 734 1424 688 1470 688 1536 c 4
 688 1602 734 1648 800 1648 c 4
352 1648 m 4
 418 1648 464 1602 464 1536 c 4
 464 1470 418 1424 352 1424 c 4
 286 1424 240 1470 240 1536 c 4
 240 1602 286 1648 352 1648 c 4
EndSplineSet
Layer: 2
Layer: 3
Layer: 4
EndChar
StartChar: uni0202
Encoding: 514 514 243
GlifName: uni0202
Width: 1024
VWidth: 0
Flags: W
HStem: 0 21G<105 246.5 905.5 1047> 384 120<342 810> 1139 141<552.916 599.249> 1408 21G<236 364 788 916> 1560 120<420.418 731.582>
VStem: 236 128<1408 1502.12> 788 128<1408 1502.12>
LayerCount: 5
Back
Fore
SplineSet
581 1139 m 5
 571 1139 l 5
 473 939 400 724 342 504 c 5
 810 504 l 5
 752 724 680 938 581 1139 c 5
312 384 m 5
 282 257 258 129 235 0 c 5
 105 0 l 5
 182 441 295 884 520 1280 c 5
 632 1280 l 5
 857 884 970 441 1047 0 c 5
 917 0 l 5
 894 129 870 257 840 384 c 5
 312 384 l 5
788 1408 m 1
 788 1494 719 1560 576 1560 c 0
 433 1560 364 1494 364 1408 c 1
 236 1408 l 1
 236 1576 388 1680 576 1680 c 0
 764 1680 916 1576 916 1408 c 1
 788 1408 l 1
EndSplineSet
Layer: 2
Layer: 3
Layer: 4
EndChar
StartChar: uni0206
Encoding: 518 518 245
GlifName: uni0206
Width: 1024
VWidth: 0
Flags: W
HStem: 0 120<320 960> 648 120<320 832> 1160 120<320 960> 1408 21G<172 300 724 852> 1560 120<356.418 667.582>
VStem: 172 128<1408 1502.12> 192 128<120 648 768 1160> 724 128<1408 1502.12>
LayerCount: 5
Back
Fore
SplineSet
192 1280 m 5xfb
 960 1280 l 5
 960 1160 l 5
 320 1160 l 5
 320 768 l 5
 832 768 l 5
 832 648 l 5
 320 648 l 5
 320 120 l 5
 960 120 l 5
 960 0 l 5
 192 0 l 5
 192 1280 l 5xfb
724 1408 m 1
 724 1494 655 1560 512 1560 c 0
 369 1560 300 1494 300 1408 c 1
 172 1408 l 1xfd
 172 1576 324 1680 512 1680 c 0
 700 1680 852 1576 852 1408 c 1
 724 1408 l 1
EndSplineSet
Layer: 2
Layer: 3
Layer: 4
EndChar
StartChar: uni020E
Encoding: 526 526 249
GlifName: uni020E_
Width: 1024
VWidth: 0
Flags: W
HStem: -16 120<422.22 729.78> 1176 120<422.22 729.78> 1408 21G<236 364 788 916> 1560 120<420.418 731.582>
VStem: 128 128<298.47 981.53> 236 128<1408 1502.12> 788 128<1408 1502.12> 896 128<298.47 981.53>
LayerCount: 5
Back
Fore
SplineSet
256 640 m 4xf9
 256 500 257 347 332 231 c 4
 379 158 465 104 576 104 c 4
 687 104 773 158 820 231 c 4
 895 347 896 500 896 640 c 4
 896 780 895 933 820 1049 c 4
 773 1122 687 1176 576 1176 c 4
 465 1176 379 1122 332 1049 c 4
 257 933 256 780 256 640 c 4xf9
128 640 m 4
 128 782 128 969 223 1112 c 4
 291 1214 411 1296 576 1296 c 4
 741 1296 861 1214 929 1112 c 4
 1024 969 1024 782 1024 640 c 4
 1024 498 1024 311 929 168 c 4
 861 66 741 -16 576 -16 c 4
 411 -16 291 66 223 168 c 4
 128 311 128 498 128 640 c 4
788 1408 m 1xf6
 788 1494 719 1560 576 1560 c 0
 433 1560 364 1494 364 1408 c 1
 236 1408 l 1
 236 1576 388 1680 576 1680 c 0
 764 1680 916 1576 916 1408 c 1
 788 1408 l 1xf6
EndSplineSet
Layer: 2
Layer: 3
Layer: 4
EndChar
StartChar: uni0308
Encoding: 776 776 127
GlifName: uni0308
Width: 1024
VWidth: 0
Flags: W
HStem: 1296 224<262.609 441.391 710.609 889.391>
VStem: 240 224<1318.61 1497.39> 688 224<1318.61 1497.39>
AnchorPoint: "top" 576 1152 mark 0
LayerCount: 5
Back
Fore
SplineSet
800 1520 m 4
 866 1520 912 1474 912 1408 c 4
 912 1342 866 1296 800 1296 c 4
 734 1296 688 1342 688 1408 c 4
 688 1474 734 1520 800 1520 c 4
352 1520 m 4
 418 1520 464 1474 464 1408 c 4
 464 1342 418 1296 352 1296 c 4
 286 1296 240 1342 240 1408 c 4
 240 1474 286 1520 352 1520 c 4
EndSplineSet
Validated: 1
Layer: 2
Layer: 3
Layer: 4
EndChar
StartChar: uni030B
Encoding: 779 779 129
GlifName: uni030B_
Width: 1024
VWidth: 0
Flags: W
HStem: 1280 256
AnchorPoint: "top" 576 1152 mark 0
LayerCount: 5
Back
Fore
SplineSet
680 1280 m 1
 846 1536 l 1
 984 1536 l 1
 818 1280 l 1
 680 1280 l 1
296 1280 m 1
 462 1536 l 1
 600 1536 l 1
 434 1280 l 1
 296 1280 l 1
EndSplineSet
Validated: 1
Layer: 2
Layer: 3
Layer: 4
EndChar
StartChar: uni030C
Encoding: 780 780 130
GlifName: uni030C_
Width: 1024
VWidth: 0
Flags: W
HStem: 1280 256
AnchorPoint: "top" 576 1152 mark 0
LayerCount: 5
Back
Fore
SplineSet
497 1280 m 1
 200 1536 l 1
 358 1536 l 1
 576 1372 l 1
 794 1536 l 1
 952 1536 l 1
 655 1280 l 1
 497 1280 l 1
EndSplineSet
Validated: 1
Layer: 2
Layer: 3
Layer: 4
EndChar
StartChar: uni0315
Encoding: 789 789 132
GlifName: uni0315
Width: 1024
VWidth: 0
Flags: W
HStem: 1024 21G<512 640>
VStem: 512 128<1024 1664>
AnchorPoint: "top" 576 1152 mark 0
LayerCount: 5
Back
Fore
SplineSet
512 1664 m 1
 640 1664 l 1
 640 1024 l 1
 512 1024 l 1
 512 1664 l 1
EndSplineSet
Validated: 1
Layer: 2
Layer: 3
Layer: 4
EndChar
StartChar: uni0327
Encoding: 807 807 134
GlifName: uni0327
Width: 1024
VWidth: 0
Flags: W
HStem: -272 120<258.225 480.744>
VStem: 512 128<-105.261 23>
AnchorPoint: "bottom" 576 1 mark 0
LayerCount: 5
Back
Fore
SplineSet
640 23 m 1
 640 -37 640 -107 588 -177 c 0
 546 -234 474 -272 384 -272 c 0
 349 -272 303 -265 256 -255 c 1
 256 -132 l 1
 304 -143 350 -152 384 -152 c 0
 431 -152 463 -135 484 -107 c 0
 512 -70 512 -27 512 23 c 1
 640 23 l 1
EndSplineSet
Validated: 1
Layer: 2
Layer: 3
Layer: 4
EndChar
StartChar: tonos
Encoding: 900 900 330
GlifName: tonos
Width: 1024
VWidth: 0
Flags: W
HStem: 1131 307
VStem: 504 281
AnchorPoint: "top" 576 1024 mark 0
LayerCount: 5
Back
Fore
SplineSet
690 1438 m 1
 785 1358 l 1
 579 1131 l 1
 504 1194 l 1
 690 1438 l 1
EndSplineSet
Validated: 1
Layer: 2
Layer: 3
Layer: 4
EndChar
StartChar: Alphatonos
Encoding: 902 902 333
GlifName: A_lphatonos
Width: 1024
VWidth: 0
Flags: W
HStem: 0 21G<103 243.5 908.5 1049> 388 120<316 836> 1289 119<555.101 596.899>
VStem: 103 135<0 299.508> 914 135<0 299.508>
LayerCount: 5
Back
Fore
SplineSet
188 1438 m 1
 283 1358 l 1
 77 1131 l 1
 2 1194 l 1
 188 1438 l 1
103 0 m 1
 156 496 267 971 511 1408 c 1
 641 1408 l 1
 885 971 996 496 1049 0 c 1
 914 0 l 1
 903 136 878 265 859 388 c 1
 293 388 l 1
 274 265 249 136 238 0 c 1
 103 0 l 1
836 508 m 1
 769 800 696 1061 581 1289 c 1
 571 1289 l 1
 456 1061 383 800 316 508 c 1
 836 508 l 1
EndSplineSet
Validated: 1
Layer: 2
Layer: 3
Layer: 4
EndChar
StartChar: theta
Encoding: 952 952 279
GlifName: theta
Width: 1024
VWidth: 0
Flags: W
HStem: -18 124<472.845 679.155> 644 120<377 775> 1302 124<472.845 679.155>
VStem: 253 124<265.199 644 764 1142.8> 775 124<265.199 644 764 1142.8>
CounterMasks: 1 e0
LayerCount: 5
Back
Fore
SplineSet
775 644 m 1
 377 644 l 1
 377 480 380 340 404 264 c 0
 432 176 486 106 576 106 c 0
 666 106 720 176 748 264 c 0
 772 340 775 480 775 644 c 1
576 1302 m 0
 486 1302 432 1232 404 1144 c 0
 380 1068 377 928 377 764 c 1
 775 764 l 1
 775 928 772 1068 748 1144 c 0
 720 1232 666 1302 576 1302 c 0
576 1426 m 0
 741 1426 820 1315 860 1209 c 0
 899 1105 899 926 899 704 c 0
 899 482 899 303 860 199 c 0
 820 93 741 -18 576 -18 c 0
 411 -18 332 93 292 199 c 0
 253 303 253 482 253 704 c 0
 253 926 253 1105 292 1209 c 0
 332 1315 411 1426 576 1426 c 0
EndSplineSet
Validated: 1
Layer: 2
Layer: 3
Layer: 4
EndChar
StartChar: kappa
Encoding: 954 954 281
GlifName: kappa
Width: 1024
VWidth: 0
Flags: W
HStem: 0 21G<256 384 833.964 1002> 1004 20G<256 384 764.815 955>
VStem: 256 128<0 435 607 1024>
LayerCount: 5
Back
Fore
SplineSet
384 0 m 1
 256 0 l 1
 256 1024 l 1
 384 1024 l 1
 384 607 l 1
 784 1024 l 1
 955 1024 l 1
 592 645 l 1
 1002 0 l 1
 846 0 l 1
 509 560 l 1
 384 435 l 1
 384 0 l 1
EndSplineSet
Validated: 1
Layer: 2
Layer: 3
Layer: 4
EndChar
StartChar: lambda
Encoding: 955 955 323
GlifName: lambda
Width: 1024
VWidth: 0
Flags: W
HStem: 0 21G<204 365 788 948> 1304 120<256 451.753>
VStem: 204 131<0 190.286> 817 131<0 201.927>
LayerCount: 5
Back
Fore
SplineSet
608 909 m 1
 598 909 l 1
 472 624 395 313 335 0 c 1
 204 0 l 1
 273 348 360 698 517 1024 c 1
 568 1024 l 1
 520 1164 500 1227 453 1263 c 0
 418 1290 338 1304 256 1304 c 1
 256 1424 l 1
 411 1424 492 1391 547 1345 c 0
 608 1294 644 1201 677 1097 c 0
 812 673 878 369 948 0 c 1
 817 0 l 1
 759 307 696 610 608 909 c 1
EndSplineSet
Validated: 1
Layer: 2
Layer: 3
Layer: 4
EndChar
StartChar: uni040F
Encoding: 1039 1039 233
GlifName: uni040F_
Width: 1024
VWidth: 0
Flags: W
HStem: 0 120<256 512 640 896> 1388 20G<128 256 896 1024>
VStem: 128 128<120 1408> 512 128<-256 0> 896 128<120 1408>
CounterMasks: 1 38
LayerCount: 5
Back
Fore
SplineSet
128 0 m 1
 128 1408 l 1
 256 1408 l 1
 256 120 l 1
 896 120 l 1
 896 1408 l 1
 1024 1408 l 1
 1024 0 l 1
 640 0 l 1
 640 -256 l 1
 512 -256 l 1
 512 0 l 1
 128 0 l 1
EndSplineSet
Validated: 1
Layer: 2
Layer: 3
Layer: 4
EndChar
StartChar: uni041C
Encoding: 1052 1052 149
GlifName: uni041C_
Width: 1024
VWidth: 0
Flags: W
HStem: 0 21G<128 256 896 1024> 1388 20G<128 266.032 886 1024>
VStem: 128 128<0 1150> 896 128<0 1150>
LayerCount: 5
Back
Fore
SplineSet
256 0 m 1
 128 0 l 1
 128 1408 l 1
 256 1408 l 1
 571 780 l 1
 582 780 l 1
 896 1408 l 1
 1024 1408 l 1
 1024 0 l 1
 896 0 l 1
 896 1150 l 1
 886 1150 l 1
 631 640 l 1
 521 640 l 1
 266 1150 l 1
 256 1150 l 1
 256 0 l 1
EndSplineSet
Validated: 1
Layer: 2
Layer: 3
Layer: 4
EndChar
StartChar: uni0421
Encoding: 1057 1057 154
GlifName: uni0421
Width: 1024
VWidth: 0
Flags: W
HStem: -16 120<454.146 1018.69> 1304 120<453.497 988.93>
VStem: 112 128<353.191 1054.81>
LayerCount: 5
Back
Fore
SplineSet
1024 141 m 1
 1024 21 l 1
 913 1 790 -16 663 -16 c 0
 367 -16 201 142 143 364 c 0
 114 478 112 594 112 704 c 0
 112 814 114 930 143 1044 c 0
 202 1266 359 1424 653 1424 c 0
 772 1424 888 1412 994 1395 c 1
 994 1275 l 1
 884 1292 762 1304 653 1304 c 0
 424 1304 313 1188 268 1016 c 0
 243 919 240 813 240 704 c 0
 240 595 243 489 268 392 c 0
 314 220 428 104 663 104 c 0
 779 104 909 121 1024 141 c 1
EndSplineSet
Validated: 1
Layer: 2
Layer: 3
Layer: 4
EndChar
StartChar: uni0430
Encoding: 1072 1072 169
GlifName: uni0430
Width: 1024
VWidth: 0
Flags: W
HStem: -16 120<417.036 655.268> 0 21G<768 896> 512 110<422.571 768> 920 120<324.118 738.253>
VStem: 224 128<171.489 439.897> 768 128<0 123 217.98 512 622 889.505>
LayerCount: 5
Back
Fore
SplineSet
768 512 m 1xbc
 572 512 l 2
 517 512 459 512 408 458 c 0
 372 420 352 362 352 303 c 0
 352 194 417 104 532 104 c 0
 762 104 768 341 768 471 c 2
 768 512 l 1xbc
608 1040 m 0
 704 1040 805 1021 866 913 c 0
 896 860 896 785 896 749 c 2
 896 0 l 1
 768 0 l 1x7c
 768 123 l 1
 758 123 l 1
 694 35 617 -16 508 -16 c 0
 350 -16 224 116 224 301 c 0
 224 383 249 470 312 533 c 0
 402 622 512 622 574 622 c 2
 768 622 l 1
 768 744 l 2
 768 788 768 831 750 862 c 0
 729 898 696 920 608 920 c 0
 520 920 408 910 320 899 c 1
 320 1021 l 1
 407 1031 516 1040 608 1040 c 0
EndSplineSet
Validated: 1
Layer: 2
Layer: 3
Layer: 4
EndChar
StartChar: uni0434
Encoding: 1076 1076 173
GlifName: uni0434
Width: 1024
VWidth: 0
Flags: W
HStem: -256 376<128 237.101 896 1024> 0 120<348 768> 904 120<512 768>
VStem: 128 128<-256 0> 384 128<577.797 904> 768 128<120 904> 896 128<-256 0>
LayerCount: 5
Back
Fore
SplineSet
348 120 m 1x7c
 768 120 l 1
 768 904 l 1
 512 904 l 1
 511 702 481 377 348 120 c 1x7c
217 120 m 1xba
 366 414 384 708 384 1024 c 1
 896 1024 l 1xba
 896 120 l 1xbc
 1024 120 l 1
 1024 -256 l 1
 896 -256 l 1xba
 896 0 l 1
 256 0 l 1x7a
 256 -256 l 1
 128 -256 l 1
 128 120 l 1
 217 120 l 1xba
EndSplineSet
Validated: 1
Layer: 2
Layer: 3
Layer: 4
EndChar
StartChar: uni04E9
Encoding: 1257 1257 238
GlifName: uni04E_9
Width: 1024
VWidth: 0
Flags: W
HStem: -16 120<449.014 702.986> 512 120<355 797> 920 120<449.014 702.986>
VStem: 224 128<213.514 512 632 810.486> 800 128<213.514 512 632 810.486>
LayerCount: 5
Back
Fore
SplineSet
352 512 m 1
 352 410 354 310 384 235 c 0
 416 156 480 104 576 104 c 0
 672 104 736 156 768 235 c 0
 798 310 800 410 800 512 c 1
 352 512 l 1
576 920 m 0
 480 920 416 868 384 789 c 0
 366 744 358 690 355 632 c 1
 797 632 l 1
 794 690 786 744 768 789 c 0
 736 868 672 920 576 920 c 0
576 1040 m 0
 736 1040 842 945 888 829 c 0
 926 734 928 633 928 512 c 0
 928 391 926 290 888 195 c 0
 842 79 736 -16 576 -16 c 0
 416 -16 310 79 264 195 c 0
 226 290 224 391 224 512 c 0
 224 633 226 734 264 829 c 0
 310 945 416 1040 576 1040 c 0
EndSplineSet
Validated: 1
Layer: 2
Layer: 3
Layer: 4
EndChar
StartChar: arrowup
Encoding: 8593 8593 344
GlifName: arrowup
Width: 1920
VWidth: 0
Flags: H
LayerCount: 5
Back
SplineSet
516 984.692382812 m 5
 181 727 l 5
 113 831 l 5
 542 1152 l 5
 610 1152 l 5
 1039 831 l 5
 971 727 l 5
 636 984.692382812 l 5
 636 256 l 5
 516 256 l 5
 516 984.692382812 l 5
EndSplineSet
Fore
Layer: 2
Layer: 3
Layer: 4
EndChar
StartChar: approxequal
Encoding: 8776 8776 343
GlifName: approxequal
Width: 1920
VWidth: -128
Flags: H
LayerCount: 5
Back
SplineSet
128 768 m 0
 134.741518769 811.346857222 144.45854783 854.274382216 158 896 c 0
 175.168811012 948.902689987 199.038646926 1000.85568973 237.204051637 1041.31387262 c 0
 256.286753992 1061.54296407 278.910144655 1078.57197081 304.158810643 1090.22832254 c 0
 329.358052459 1101.86185701 357.081796733 1108.00007084 384.836689677 1108.00007084 c 0
 420.387227832 1107.98464924 455.343915019 1097.91107938 487.13073459 1082.09269564 c 0
 518.859538396 1066.30318286 547.546053255 1045.12814757 575.999999999 1024 c 0
 604.453946743 1002.87185243 633.140461602 981.696817141 664.869265409 965.907304357 c 0
 696.655770987 950.08907688 731.613014198 940.01535065 767.163310323 939.999929157 c 0
 794.918203267 939.999929157 822.641947541 946.138142988 847.841189357 957.771677456 c 0
 873.089855345 969.428029189 895.713246008 986.457035934 914.795948363 1006.68612738 c 0
 952.961353074 1047.14431027 976.831188988 1099.09731001 994 1152 c 0
 1007.54145217 1193.72561778 1017.25848123 1236.65314278 1024 1280 c 1024
  Spiro
    128 768 {
    158 896 o
    385 1108 o
    767 940 o
    994 1152 o
    1024 1280 v
    0 0 z
  EndSpiro
EndSplineSet
Fore
Layer: 2
SplineSet
219.825647257 875.935370891 m 1
 96.1743527432 916.064629109 l 1
 114.854918119 973.62552591 141.916991172 1035.02774921 189.921893685 1085.91653554 c 0
 214.075783508 1111.52146491 243.193528717 1133.67543649 276.914014935 1149.24290639 c 0
 310.677267717 1164.83012 347.482564937 1173.00006473 384.864886263 1173.00006473 c 0
 432.740357516 1172.97929665 477.268428963 1159.60429858 516.089685328 1140.28529974 c 0
 554.577651112 1121.13215954 586.239492747 1097.35671028 614.75033973 1076.1863121 c 0
 643.146918035 1055.1007628 668.858905827 1036.52562885 693.828216147 1024.09990846 c 0
 718.567502121 1011.78865731 743.998070489 1005.00997809 767.163310323 1004.99992916 c 0
 785.351897002 1004.99992916 803.948509727 1009.10056453 820.59639365 1016.7862613 c 0
 837.373450203 1024.53159218 853.502092449 1036.4353427 867.513790412 1051.2887903 c 0
 895.83980746 1081.31648651 916.517237712 1123.81996604 932.174352743 1172.06462911 c 1
 1055.82564726 1131.93537089 l 1
 1037.14514026 1074.37465399 1010.08289869 1012.97213403 962.078106315 962.08346446 c 0
 937.924399568 936.478729165 908.806260486 914.324466198 875.085985065 898.757093607 c 0
 841.335385355 883.175721442 804.484509531 874.999929157 767.163310323 874.999929157 c 0
 719.227957907 875.020723209 674.744039852 888.389496445 635.91031467 907.714700255 c 0
 597.422017377 926.868005431 565.760975451 950.642942064 537.249660267 971.813687899 c 0
 508.852613762 992.899584855 483.14142568 1011.47420618 458.171783852 1023.90009154 c 0
 433.419401074 1036.21786018 408.034098149 1042.99000184 384.808493092 1043.00007696 c 0
 366.681028529 1043.00007696 348.038837201 1038.89359402 331.40360635 1031.2137387 c 0
 314.626760593 1023.46850514 298.497724475 1011.56446322 284.486209588 996.711209701 c 0
 256.16030268 966.683630251 235.482703906 924.179854065 219.825647257 875.935370891 c 1
EndSplineSet
Layer: 3
SplineSet
932.771484375 1169.46484375 m 5
 1055.22851562 1134.53515625 l 5
 1036.73144531 1077.5390625 1010.1640625 1017.21386719 962.737304688 966.938476562 c 4
 938.869140625 941.635742188 909.947265625 919.563476562 876.114257812 903.944335938 c 4
 842.248046875 888.309570312 804.975585938 880 767.163085938 880 c 4
 718.587890625 880.020507812 673.733398438 893.567382812 634.864257812 912.91015625 c 4
 596.323242188 932.08984375 564.776367188 955.79296875 536.262695312 976.965820312 c 4
 507.866210938 998.051757812 482.044921875 1016.69433594 457.123046875 1029.09667969 c 4
 432.409179688 1041.39550781 407.39453125 1047.99023438 384.806640625 1048.00097656 c 4
 367.17578125 1048.00097656 348.953125 1044.02734375 332.43359375 1036.40136719 c 4
 315.766601562 1028.70703125 299.443359375 1016.72167969 285.145507812 1001.56542969 c 4
 256.2421875 970.924804688 235.069335938 927.34375 219.228515625 878.53515625 c 5
 96.771484375 913.46484375 l 5
 115.268554688 970.461914062 141.8359375 1030.78613281 189.262695312 1081.06152344 c 4
 213.130859375 1106.36425781 242.053710938 1128.43652344 275.884765625 1144.05566406 c 4
 309.763671875 1159.69628906 346.98828125 1168 384.8671875 1168 c 4
 433.380859375 1167.97949219 478.278320312 1154.42773438 517.138671875 1135.08886719 c 4
 555.673828125 1115.91113281 587.225585938 1092.20507812 615.737304688 1071.03417969 c 4
 644.131835938 1049.94921875 669.958007812 1031.30371094 694.874023438 1018.90429688 c 4
 719.579101562 1006.61132812 744.638671875 1000.00976562 767.163085938 1000 c 4
 784.860351562 1000 803.03515625 1003.96679688 819.567382812 1011.59863281 c 4
 836.232421875 1019.29296875 852.556640625 1031.27832031 866.854492188 1046.43457031 c 4
 895.7578125 1077.07519531 916.930664062 1120.65527344 932.771484375 1169.46484375 c 5
EndSplineSet
Layer: 4
EndChar
StartChar: notequal
Encoding: 8800 8800 342
GlifName: notequal
Width: 1920
VWidth: -128
Flags: H
LayerCount: 5
Back
SplineSet
256 58 m 29
 896 1350 l 1053
EndSplineSet
Fore
Layer: 2
Layer: 3
Layer: 4
EndChar
StartChar: uni266E
Encoding: 9838 9838 353
GlifName: uni266E_
Width: 1920
VWidth: 0
Flags: H
LayerCount: 5
Back
SplineSet
384 1344 m 5
 512 1344 l 5
 512 981 l 5
 768 1066 l 5
 768 1472 l 5
 896 1472 l 5
 896 1109 l 5
 1003 1145 l 5
 1045 1031 l 5
 896 982 l 5
 896 589 l 5
 1003 625 l 5
 1045 511 l 5
 896 462 l 5
 896 64 l 5
 768 64 l 5
 768 419 l 5
 512 334 l 5
 512 -64 l 5
 384 -64 l 5
 384 291 l 5
 277 255 l 5
 235 369 l 5
 384 418 l 5
 384 811 l 5
 277 775 l 5
 235 889 l 5
 384 938 l 5
 384 1344 l 5
768 546 m 5
 768 939 l 5
 512 854 l 5
 512 461 l 5
 768 546 l 5
EndSplineSet
Fore
Layer: 2
Layer: 3
Layer: 4
EndChar
StartChar: uniE0A2
Encoding: 57506 57506 350
GlifName: uniE_0A_2
Width: 1920
VWidth: 0
Flags: H
LayerCount: 5
Back
SplineSet
448 576 m 4
 448 647 505 704 576 704 c 4
 647 704 704 647 704 576 c 4
 704 505 647 448 576 448 c 4
 505 448 448 505 448 576 c 4
EndSplineSet
Fore
Layer: 2
SplineSet
384 768 m 5
 896 768 l 5
 896 128 l 5
 384 128 l 5
 384 768 l 5
EndSplineSet
Layer: 3
Layer: 4
EndChar
StartChar: g.long
Encoding: 1114163 -1 361
GlifName: g.long
Width: 1920
VWidth: 0
Flags: H
LayerCount: 5
Back
Fore
Layer: 2
SplineSet
560 980 m 4
 539.486984178 980 518.958029489 977.739290773 499 973 c 4
 459.393516827 963.59493121 422.297923408 943.863864912 392.394560293 916.242899998 c 4
 362.491197179 888.621935085 339.898902872 853.612235042 324.35319295 815.989639021 c 4
 293.261773105 740.744446981 288 657.415694514 288 576 c 4
 288 494.584305486 293.261773105 411.255553019 324.353192949 336.010360978 c 4
 339.898902872 298.387764958 362.491197179 263.378064915 392.394560293 235.757100001 c 4
 422.297923408 208.136135088 459.393516827 188.40506879 499 179 c 4
 518.958029489 174.260709227 539.486984178 172 560 172 c 4
 580.513015822 172 601.041970511 174.260709227 621 179 c 4
 660.606483173 188.40506879 697.702076592 208.136135088 727.605439707 235.757100002 c 4
 757.508802821 263.378064915 780.101097128 298.387764958 795.64680705 336.010360979 c 4
 826.738226895 411.255553019 832 494.584305486 832 576 c 4
 832 657.415694514 826.738226895 740.744446981 795.646807051 815.989639022 c 4
 780.101097128 853.612235042 757.508802821 888.621935085 727.605439707 916.242899999 c 4
 697.702076592 943.863864912 660.606483173 963.59493121 621 973 c 4
 601.041970511 977.739290773 580.513015822 980 560 980 c 4
  Spiro
    560 980 o
    499 973 o
    288 576 o
    499 179 o
    560 172 o
    621 179 o
    832 576 o
    621 973 o
    0 0 z
  EndSpiro
EndSplineSet
Layer: 3
SplineSet
560 1040 m 4
 585.522460938 1040 611.322265625 1037.19335938 636.715820312 1031.16210938 c 4
 687.7265625 1019.05078125 734.657226562 993.958984375 772.522460938 958.984375 c 4
 810.219726562 924.1640625 837.102539062 881.765625 855.325195312 837.662109375 c 4
 891.291992188 750.620117188 896 659.584960938 896 576 c 4
 896 492.4140625 891.291992188 401.380859375 855.325195312 314.336914062 c 4
 837.103515625 270.235351562 810.217773438 227.834960938 772.522460938 193.016601562 c 4
 734.657226562 158.041015625 687.728515625 132.951171875 636.71484375 120.836914062 c 4
 611.32421875 114.807617188 585.522460938 112 560 112 c 4
 534.477539062 112 508.677734375 114.806640625 483.284179688 120.836914062 c 4
 432.272460938 132.951171875 385.34375 158.040039062 347.4765625 193.017578125 c 4
 309.782226562 227.833984375 282.896484375 270.235351562 264.674804688 314.337890625 c 4
 228.708007812 401.379882812 224 492.4140625 224 576 c 4
 224 659.5859375 228.708007812 750.619140625 264.674804688 837.663085938 c 4
 282.896484375 881.763671875 309.782226562 924.165039062 347.4765625 958.983398438 c 4
 385.344726562 993.959960938 432.270507812 1019.04980469 483.287109375 1031.16308594 c 4
 508.673828125 1037.19238281 534.478515625 1040 560 1040 c 4
  Spiro
    560 1040 o
    585.564 1039.05 o
    611.238 1036.13 o
    636.716 1031.16 o
    686.134 1014.86 o
    731.863 990.522 o
    772.522 958.984 o
    806.664 921.895 o
    834.16 880.937 o
    855.325 837.662 o
    881.838 749.801 o
    893.453 661.557 o
    896 576 o
    893.453 490.442 o
    881.838 402.199 o
    855.325 314.337 o
    834.16 271.063 o
    806.663 230.105 o
    772.522 193.017 o
    731.864 161.479 o
    686.135 137.142 o
    636.715 120.837 o
    611.238 115.87 o
    585.564 112.949 o
    560 112 o
    534.436 112.949 o
    508.762 115.87 o
    483.284 120.837 o
    433.866 137.141 o
    388.137 161.479 o
    347.477 193.018 o
    313.336 230.105 o
    285.84 271.063 o
    264.675 314.338 o
    238.162 402.198 o
    226.547 490.442 o
    224 576 o
    226.547 661.558 o
    238.162 749.801 o
    264.675 837.663 o
    285.84 880.937 o
    313.336 921.895 o
    347.477 958.983 o
    388.137 990.522 o
    433.866 1014.86 o
    483.287 1031.16 o
    508.762 1036.13 o
    534.436 1039.05 o
    0 0 z
  EndSpiro
560 920 m 4
 544.49609375 920 529.2421875 918.286132812 514.712890625 914.8359375 c 4
 486.516601562 908.140625 459.250976562 893.767578125 437.3125 873.502929688 c 4
 415.200195312 853.079101562 396.900390625 825.459960938 384.032226562 794.31640625 c 4
 357.815429688 730.869140625 352 655.245117188 352 576 c 4
 352 496.75390625 357.815429688 421.131835938 384.032226562 357.682617188 c 4
 396.900390625 326.541015625 415.200195312 298.921875 437.3125 278.497070312 c 4
 459.251953125 258.231445312 486.514648438 243.860351562 514.715820312 237.163085938 c 4
 529.23828125 233.713867188 544.497070312 232 560 232 c 4
 575.502929688 232 590.759765625 233.713867188 605.28515625 237.163085938 c 4
 633.484375 243.859375 660.747070312 258.231445312 682.688476562 278.498046875 c 4
 704.799804688 298.920898438 723.099609375 326.540039062 735.967773438 357.68359375 c 4
 762.184570312 421.130859375 768 496.754882812 768 576 c 4
 768 655.245117188 762.184570312 730.8671875 735.967773438 794.317382812 c 4
 723.100585938 825.458007812 704.797851562 853.080078125 682.688476562 873.502929688 c 4
 660.747070312 893.768554688 633.486328125 908.140625 605.284179688 914.836914062 c 4
 590.76171875 918.28515625 575.502929688 920 560 920 c 4
  Spiro
    560 920 o
    544.612 919.429 o
    529.451 917.706 o
    514.713 914.836 o
    487.017 905.659 o
    460.839 891.721 o
    437.312 873.503 o
    416.55 850.841 o
    398.635 824.121 o
    384.032 794.316 o
    364.09 727.198 o
    354.473 653.645 o
    352 576 o
    354.473 498.354 o
    364.09 424.802 o
    384.032 357.683 o
    398.635 327.88 o
    416.55 301.159 o
    437.312 278.497 o
    460.839 260.278 o
    487.017 246.341 o
    514.716 237.163 o
    529.451 234.294 o
    544.612 232.571 o
    560 232 o
    575.388 232.571 o
    590.549 234.294 o
    605.285 237.163 o
    632.983 246.34 o
    659.161 260.278 o
    682.688 278.498 o
    703.45 301.159 o
    721.365 327.879 o
    735.968 357.684 o
    755.91 424.802 o
    765.527 498.355 o
    768 576 o
    765.527 653.645 o
    755.91 727.197 o
    735.968 794.317 o
    721.365 824.12 o
    703.449 850.841 o
    682.688 873.503 o
    659.161 891.722 o
    632.983 905.66 o
    605.284 914.837 o
    590.549 917.706 o
    575.388 919.429 o
    0 0 z
  EndSpiro
EndSplineSet
Layer: 4
EndChar
StartChar: three.russian
Encoding: 1114154 -1 360
GlifName: three.russian
Width: 1920
VWidth: 0
Flags: H
LayerCount: 5
Back
SplineSet
800 449 m 4
 800 518.421568627 799 593.549019608 780 643 c 4
 742 746 665 772 592 772 c 4
 562 772 538 768 514 761 c 5
 455 837 l 5
 740 1288 l 5
 276 1288 l 5
 276 1408 l 5
 896 1408 l 5
 896 1298 l 5
 604 868 l 5
 611 861 l 5
 634 868 656 871 676 871 c 4
 761 871 825 821 865 761 c 4
 924 674.74691358 928 571.049382716 928 447 c 4
 928 130.329746525 803.823691389 -16 560 -16 c 4
 447.694267516 -16 338.292993631 1.01960784314 256 15 c 5
 256 137 l 5
 335.388535032 122.267857143 456.407643312 104 560 104 c 4
 763.47826087 104 800 260 800 449 c 4
EndSplineSet
Fore
Layer: 2
Layer: 3
Layer: 4
EndChar
